<?xml version="1.0" encoding="UTF-8"?>
<svg id="Lag_1" data-name="Lag 1" xmlns="http://www.w3.org/2000/svg" viewBox="0 0 78.72 78.72">
  <defs>
    <style>
      .cls-1 {
        fill: #fff;
      }

      .cls-2 {
        fill: #767676;
      }
    </style>
  </defs>
  <circle id="Ellipse_3" data-name="Ellipse 3" class="cls-2" cx="39.36" cy="39.36" r="39.36"/>
  <path id="Icon_awesome-instagram" data-name="Icon awesome-instagram" class="cls-1" d="m39.26,27.63c-6.53,0-11.83,5.29-11.83,11.83s5.29,11.83,11.83,11.83,11.83-5.29,11.83-11.83c0-6.52-5.27-11.82-11.79-11.83-.01,0-.02,0-.04,0Zm0,19.52c-4.25,0-7.69-3.44-7.69-7.69s3.44-7.69,7.69-7.69,7.69,3.44,7.69,7.69c0,4.24-3.45,7.68-7.69,7.69h0Zm15.07-20c0,1.52-1.23,2.76-2.76,2.76s-2.76-1.23-2.76-2.76,1.23-2.76,2.76-2.76c1.52,0,2.75,1.23,2.76,2.75,0,0,0,0,0,.01Zm7.83,2.8c-.18-3.69-1.02-6.97-3.73-9.67s-5.97-3.54-9.67-3.73c-3.81-.22-15.22-.22-19.03,0-3.68.18-6.96,1.02-9.66,3.72-2.71,2.7-3.54,5.97-3.73,9.66-.22,3.81-.22,15.22,0,19.03.18,3.69,1.02,6.97,3.73,9.67,2.71,2.7,5.97,3.54,9.67,3.73,3.81.22,15.22.22,19.03,0,3.69-.18,6.97-1.02,9.67-3.73s3.54-5.97,3.73-9.67c.22-3.81.22-15.21,0-19.02h0Zm-4.92,23.11c-.79,2.01-2.38,3.59-4.38,4.38-3.04,1.2-10.24.93-13.6.93s-10.57.27-13.6-.93c-2.01-.79-3.59-2.38-4.39-4.38-1.2-3.04-.93-10.24-.93-13.6s-.27-10.57.93-13.59c.79-2.01,2.38-3.6,4.39-4.39,3.04-1.2,10.24-.93,13.6-.93s10.57-.27,13.6.93c2.01.79,3.59,2.38,4.39,4.39,1.2,3.04.93,10.24.93,13.6s.28,10.57-.93,13.59Z"/>
</svg>