<svg id="Lag_1" data-name="Lag 1" xmlns="http://www.w3.org/2000/svg" viewBox="0 0 535.64 650.34"><defs><style>.cls-1{fill:#c7c7c7;}.cls-2{fill:#fdfdfd;}.cls-3{fill:#cacaca;}.cls-4{fill:#c8c8c8;}.cls-5{fill:#cdcdcd;}.cls-6{fill:#c9c9c9;}.cls-7{fill:#cbcbcb;}.cls-8{fill:#f7f7f7;}.cls-9{fill:#ccc;}.cls-10{fill:#d7d7d7;}.cls-11{fill:#f9f9f9;}.cls-12{fill:#f8f8f8;}.cls-13{fill:#f6f6f6;}.cls-14{fill:#cecece;}.cls-15{fill:#f3f3f3;}.cls-16{fill:#fafafa;}.cls-17{fill:#d4d4d4;}.cls-18{fill:#dfdfdf;}.cls-19{fill:#cfcfcf;}.cls-20{fill:#d5d5d5;}.cls-21{fill:#ebebeb;}.cls-22{fill:#d3d3d3;}.cls-23{fill:#f1f1f1;}.cls-24{fill:#d1d1d1;}.cls-25{fill:#ddd;}.cls-26{fill:#d8d8d8;}.cls-27{fill:#f2f2f2;}.cls-28{fill:#dedede;}.cls-29{fill:#d2d2d2;}.cls-30{fill:#fefefe;}.cls-31{fill:#fbfbfb;}.cls-32{fill:#f5f5f5;}.cls-33{fill:#f4f4f4;}.cls-34{fill:#ededed;}.cls-35{fill:#aaa;}.cls-36{fill:#b7b7b7;}.cls-37{fill:#9b9b9b;}.cls-38{fill:#a3a3a3;}.cls-39{fill:#fcfcfc;}.cls-40{fill:#f0f0f0;}.cls-41{fill:#9f9f9f;}</style></defs><path class="cls-1" d="M409,469c0-.33,0-.67,0-1-1.58-14.76-1.33-29.69-6.64-44-4-10.73-1.46-21.93.13-32.9a132.89,132.89,0,0,0,.94-30.24c-.9-10.92.18-22-.47-32.95-.8-13.33,1.63-26.09,5.06-38.79.8-3,1-3.35,3.76-6.53.1,1.22.45,2.23.2,3.06-2.17,7.37,3.05,10.74,7.68,14.48,2.62,2.11,1.47,6,3.85,8.26,4.63-5.14,6.48-5.42,13.21-2a60.11,60.11,0,0,1,7.52,3.91c2.12,1.47,3.79,1.73,5.64-.12,2.29-2.29,3.58-1,4.7,1.25,2.06,4.15,4.56,8.13,6.18,12.45,2.07,5.51,5.86,2.32,8.76,2,2.66-.34,4.62-2.08,3.84-5.7-.6-2.79-1.23-5.95,1.5-8.39,1.58-1.43-.16-2.28-.86-3.27-2.47-3.49-5.63-6.48-6.86-10.85-.55-1.95-.22-3,1.56-3.27,6.4-1.09,9-6,11.7-11,.8-1.5,1.3-3.77,3.86-1.73,1.05.83,2.2-.34,3.33-.44,2.1-.17,5.44-.16,5-2.6-.49-2.88-3.48-1-5.44-.71-2.25.32-3.82,0-2.57-2.85,2.26-5.25,5.06-10.06,9.8-13.57,2.67-2,5.09-3.58,8.29-1.12a2.74,2.74,0,0,0,3.2.12c4-2,8.52-.36,9.94,3.63s2.09,8,5.41,11c1.5,1.34.5,2.76-.68,3.84-2.43,2.22-3.64,5.11-4.71,8.11-.39,1.08-.75,2.59-1.59,3-6,3.17-4.54,9-5.19,14-.13,1-1.07,3.13,1,3.12,1.47,0,3.55-.68,3.74-2.7.63-6.71,6.47-7.24,10.94-9.32,1.28-.6,3-.22,4.38-.68a4.89,4.89,0,0,1,5.78,1.81c1.2,1.68-1.12,2.73-1.75,4.12-1.65,3.69-.81,7.59.86,10.77,1.43,2.72,4.35,4.07,8.09,3,3.5-1,3.23-3.86,3.18-5.93s-2.26-.85-3.59-.58c-6.22,1.27-6.09,1.21-5.25-4.88a68.11,68.11,0,0,1,2.79-13.6c1.19-3.36-.91-5.39-1.93-7.84-.75-1.79-2.4-1.15-3.88-.5-3.16,1.39-6.37,2.67-10.39,4.34,1.85-4.8,4.79-8.17,6.1-12.36,1-3.11,1.44-5.26-2.51-6.46-3.06-.93-4.48-6.79-2.89-10.66.76-1.84,1.72-3.61,2.57-5.41,1.31-2.79.31-5.36-1.36-7.41-3.41-4.22-3.5-7.32.13-11.33C529,227.23,534,223.84,536,218c7-7.81,25.16-8.05,32.34-.44A5.55,5.55,0,0,1,569.6,224c-.52,1.54-2.76,1.82-2.78,4.12a6.4,6.4,0,0,1,2.45-3.44c4.51-3.37,7.06-7.91,9.27-13.09,2-4.77,7.64-5.84,12.28-6.37,4.29-.49,8.76,1.11,13.08-.93,1-.45,2.24.36,3.35.65,3.85,1.25,4.67-3.58,7.74-3.87,5.45,2,9.2,6.34,13.48,10,3.29,2.77,6.54,5.61,10,8.22,2.82,2.15,6.24,1.93,9.59,1.8,1.56-.06,3.22-.14,2.21,2.38-5,12.25-3.22,24.66-1,37.12.8,4.41,1.29,8.82,4.55,12.33A3.12,3.12,0,0,1,654,277c-1.09,1.53-2.32.54-3.57.33-4.2-.73-8.42-3.46-12.61.25-1,.89-2.2-.23-3.21-.72s-2.07-1.09-3.3-.5c-6.92,3.28-14.82,4.71-20.29,10.73-2,3.32-5.49,2.79-8.24,3.46,2.65.23,5.31-1.57,8.26-1.41,4.09-.91,7.82-2.45,10.52-5.89.65-.83,1.33-2.35,2.73-1.33,1.82,1.33,2.46.07,3.59-1,3.18-3,6.7-2.9,9.58.23,1.7,1.83,2.9,1.62,4.62.5a12.51,12.51,0,0,1,3.52-1.85c3.53-.92,8-2.29,10.36.46s2.12,7.67,1.58,11.43c-.29,2-3.56,3.62-5.49,5.4-2.39,3.38-5.1,6.52-7.28,10,1.59-2.41,3.37-4.69,5.09-7,1.13-1.52,2.35-2.31,4.1-.93,2,2.1,3,4.71,4.07,7.34,2.1,5.25,5.59,8.37,11.47,9.79a34.24,34.24,0,0,0,19.46-.76c5.26-1.73,10.82-1.42,16.21-2.34,3.85-.66,9.43,3.11,10.28,6.88s4.08,5.19,6.52,7.15c2.92,2.34,3.22,4.46,2,7.68-1.75,4.47-3.26,9-3.07,14,.13,3.25-2.38,5.77-4.07,8.4-4,6.22-6.69,13.41-13.32,17.67-2,1.28-2.55,3.34-2.46,5.67a29.83,29.83,0,0,1-.19,6c-1.1,6.79-3.08,7.38-8.52,3.32-2.92-2.17-.66-4-.47-6.09.17-1.88,2.87-4.69-.28-5.44-2.94-.7-7-2.38-9.26,2-2.73,5.29-6.17,10.37-2.82,16.8,1.5,2.88-1.11,4.59-3.14,5.23-2.39.74-2.06-1.9-2.48-3.35-1.68-5.81-1.67-5.82,2.95-10-4.2-.72-7.37-5.9-11.89-.17-1.33,1.69-4.74.46-5.94-2.26-.86-1.94-2.9-4.46.82-5.54,3.09-.9,6.44-6.41,9.35.87,2.25-4.38,2.56-8.53,3.74-12.41.85-2.79-.75-4.36-3.28-5.22-5.39-1.85-9.22-.11-12.25,4.72a114.42,114.42,0,0,1-12.17,16.26,14.15,14.15,0,0,0-2.35,14.71c3,7.55,3.4,15.08,3.19,22.94-.14,5.25,2,10.49.12,15.77-.16.46.07,1.27-.2,1.44-4.81,3.17-7.47,7.44-7.42,13.35,0,.74-1.08,1.19-2,.45a12.18,12.18,0,0,1-2.27-1.93c-5.12-7.21-12.8-5.72-18.89-3.58-3.56,1.26-6.81,2.56-10.59,2.54-.72,0-1.44.33-1.37,1.08a3,3,0,0,0,2.32,2.89c3.53.9,7,2,10.58,2.76,9.08,1.95,9.43,2.83,3.67,10.17-6.09,1.07-12.23.33-18.34.46-9.1.19-18.2-.18-25.25.13,12.86.21,27.77-.7,42.66.42.06,3.57,3.83,3.06,5.6,4.8-1,2.14-3.13,1.91-4.65,2.72-1.15.62-3.09,1.1-2.78,2.49,1.24,5.59-3,4.59-6,5.4s-5.89,1.4-8.47,2.79c-5.71,3.1-10.92,1.91-15.92-1.26-8.29-5.25-10-5.54-19.7-2.15,2.45,2.08,5.16,1,7.58,1.07s4.81.22,6.06,2.56c2.06,3.83,7.64,4.83,7.85,10.27.06,1.64,2.43,1.28,3.89,1.3,2.15,0,4.31,0,6.47,0,.45,1.87-1,2.56-2,3.15a11.91,11.91,0,0,0-5.48,7.39c-1,3.44-7.05,4.14-5.06,9.55.35.94-2.69,1.09-3.91.65-3.1-1.14-5.38,0-7.84,1.69-1.89,1.27-3.87,2.64-6.36,2.63h-7.1c1.09,3.28,3.1,1.84,4.67,2,3.94.48,8.31-1.85,11.77,2,2.68,3,2.53,6.24-1.16,8-3.85,1.82-6.92,3.42-3.52,8.19a2.85,2.85,0,0,1,.09,2.36c-1.65,3.67-1.8,6.26,2.47,8.79,2.87,1.69,1.23,6.19,2.15,9.37.64,2.23,1.21,4,3.29,5.16,2.58,1.4,3.56,3.25,2.07,6.13a15.12,15.12,0,0,0-1.22,6.29,5.67,5.67,0,0,1-8.75,4.37c-2.67-1.7-9,1.13-11.16,5.37-2,4.08-3.63,8.25.56,12.35,1.12,1.09,3.56,2.7,2.6,4.34a13.09,13.09,0,0,1-6.46,6,4,4,0,0,1-1,.11c-2.12.17-4.48-.09-5.48,2.44a1.85,1.85,0,0,0,.61,1.69c2.41,1,5,2,7.59,1.13,5.78-1.94,9.42-1.4,14.36,1.52,3.16,1.87,5.8,5.15,10.22,4.39,1.89-.32,2.29,1.59,3,2.83,1.41,1.33,1.81,3.1,2.12,4.91-.23,2.78,1.51,5.35.86,8.18-1.64,2.36-6-1-6.37,2.49-.19,2,2.17,4.32,3.35,6.51.31.56.51,1.19.91,2.14a27.75,27.75,0,0,1-7.94-1c-2.06-.66-5.58,1-4.07-4.15.69-2.36-4.07-3.07-6.33-4.45-2-1.2-2.35,1.09-2.55,2.5-.25,1.78-1.7,1.9-2.89,2.29a24.17,24.17,0,0,0-9.16,4.91c-1.21,1.11-2.73,2-4.53,1-3.5-2-6.05-.65-7.62,2.58-2,4-5.39,3.1-8.63,3-1.39,0-2-.75-2.22-2.15-.3-2,1-4.71-1.46-5.91-4-1.9-7.25-5.49-12.26-5a33.51,33.51,0,0,1-6.49,0c-2.62-.24-5.51-.21-7.48-2.21-3.69-3.73-8.2-4-12.93-3.55-3.29.35-6.56,1-9.68-.75-.4-.22-1.21-.39-1.41-.18-4.48,4.52-8.59,1.81-13.37.19-3.13-1.06-3.95-1.94-3.83-4.83a46.81,46.81,0,0,0-2-16.69c-1.61-5,.23-10.43,2.33-14.89,3.95-8.44,2.64-16.75,1.43-25.25-1-6.68-2.68-13.24-.57-20.14,1.13-3.72-2.29-6.89-3-10.61-1-5.19-1.48-11-7.84-13.48-2.09-.82-3.84-1.53-6.1-1.07-6.05,1.24-8.34-.27-11.71-5.75-2.41-3.94-5.76-7.29-8.5-11-1.93-2.64-6.32-4.24-3.8-9,.62-1.16-1.53-1.24-2.48-1.75-1.67-.91-2.68-.45-3.72,1.07-2.06,3-1.52,9.47,1.27,13,.31.39.75.68,1,1.08,1.33,1.88,4.83,3.65,2.28,6.1-2.2,2.1-3.37-1.55-4.86-2.69-5.24-4-9.82-9-16.53-10.81-3.11-.83-3.65-2.72-2.4-5.69A184,184,0,0,0,407,483.68,53.82,53.82,0,0,0,409,469Z" transform="translate(-398.28 -59.64)"/><path class="cls-1" d="M849.9,452a7.62,7.62,0,0,0,.76-8.41,24.54,24.54,0,0,1-1.13-3.29c-3.84-11.69-3.84-11.67-15.24-7a13.44,13.44,0,0,1-3.35.73,3.08,3.08,0,0,1-3.56-2c-.82-1.86.21-2.72,1.52-3.64,3.67-2.57,7.18-5.38,11-7.77,7.6-4.81,13.23-12.09,21-16.6,1.53,2.55,4.2,1.95,6.48,2.65,3.6,1.11,6.69,3.56,9.52,6.14s5.57,4.65,9.32,5.28c1.27,2.05-.28,4.17.22,6.74,1.87-1.47,3.39-3.24,5.75-3.32,4.51.5,8.11,3.79,12.82,3.95,1.64.06,1.72,2.08.9,3.59-2.87,5.3-3.27,10.77-.37,16.09,4.34,7.94,4,17,6.68,25.35.47,1.44-.35,2.59-.55,3.87-.15,1-.85,2.47-.48,2.79,2.56,2.21,5.63,4.09,2.06,7.86,4.77,1.81,2.86,7.83,6.57,10.38,2,1.37,2.11,3.58,2,5.84-.14,4.24-7.31,11.38-11.43,11.26-3.58-.1-8.3-8.68-6.86-12.49.35-.91,2.07-2,0-2.69-1.66-.58-1.79,1.1-2,2.16-.57,3.12-2.22,4.35-5.27,3.16-3.92-1.54-6.52,1.77-9.75,2.68-10.31,2.91-16.71,9.88-19,20.27-2.47,11.13,3.16,16.37,12.89,18.33,8,1.6,14.44,8.42,14.43,16.55,0,11-4.83,15.76-16.07,15.46-6.6-.18-11.88,1.9-16.32,6.81-2.93,3.23-5.6,6.77-11,6.74-3.19,0-4.49,3.58-4.31,6.34s2.77,3.32,5.37,3.16c2.32-.14,4.66,0,7-.09s4.58.64,5,3.08c.37,2.09-.28,4.62-2.63,5.35-3.42,1.07-3.46,3-2.21,5.65a23.35,23.35,0,0,1,1.1,3.31c1.13,3.93,4.48,8.12-3.51,9.45-3.12.51-5.43,5.08-9.86,4.61-1.18-.13-2.63.08-3.23-.81-3.33-4.89-8.77-5.33-13.73-6.9-3.61-1.15-5.65-4.53-8.61-6.63-.3-.25-.4-.49-.29-.73s.2-.35.31-.35c2.85-.31,3.73-1.55,1.51-3.76-1.81-1.8-3.19-4-6.34-4.34-3.74-.41-2.43-4.5-4-6.42.8-1.76,1.81-.75,2.66-.63,2.32.33,2.07-1.68,2.63-2.9s.7-2.66-.92-2.68c-3.39,0-4.87-3-7.44-4.27-2-2-.23-3.49.75-5.45-2.05,0-3.18,1.22-4.38,2.48-.93,1-1.54,2.65-3.45,1.89-4-3.39-9.39-3.06-13.89-4.95-5.2-2.19-10-2.77-15-.11a4.41,4.41,0,0,1-3.88-.23c-1.78-.85-3.08-1.67-5.13.38s-3.88-1.29-5.87-2-.47-2.22,0-3.31c1.08-2.55-1.64-11.83-4.16-13-4.61-2.21-7.76-6.22-11.81-9.11a3,3,0,0,1-.92-4,2.89,2.89,0,0,1,3.3-2.16c6.59.29,8.43-3.09,7.69-9.62-.64-5.64-.46-11.38-3.5-16.32-1.5-2.44-2.64-7.17-7.48-3.69-.93.67-2,.23-2.19-1.06-.18-1,0-2.24,1.19-2.36,3.17-.29,6.46,0,6.72-4.63.3-5.33-.94-10-5.33-13.27-4-2.94-7.79-6.29-13.19-6.48-1,0-2.07-.84-3.41-1.43,1.64-2,3.47-1.26,5.11-1.11,1.48.13,3,.74,4.41.6,1.77-.17,4.49,1.36,5.11-1.37.51-2.25-2.15-2.62-3.68-3.41a12.53,12.53,0,0,1-5.56-4.75c-2.11-3.56-6.2-2.43-9.42-3.35-1.06-.3-2.6.17-2.84-1.37-.28-1.85,1.48-2,2.65-2.36,3.4-.94,6.58.12,9.63,1.55,3.58,1.69,7.17,2,10.39-.48,3-2.28,4.49-1,5.61,1.8,1.45,3.62,3.76,6.07,7.88,6.37.6-1.44-.42-2.33-.86-3.31-.69-1.53-1.78-3.05-.21-4.54s2.67,0,3.79.95c.66.54,1.51,1.24,2.12.35,2.43-3.49,6.49-3.56,9.87-5.12,2.36-1.1,4.18-3,3.59-6.38-1.27-7.19,1.2-10.94,8.32-11.24,4.27-.18,5.74-2.22,7.09-5.44,3.7-8.84-.61-15.62-10.13-15.81-7.48-.14-13.55-3.66-15.89-9.86,8.16,7.09,17.7,8,27.07,9.46,1.75.28,3.23-.59,4.79-1.06s2.82-.64,4.24.36c5,3.51,10,3.1,15.31-.92,1.25-.94,2.29-3.75,4.27-1.89s0,3.33-1,5.33c-2.14,4.45-3,9.05-9.8,6.58-.67-.24-2.48,3.45-.82,5.94,1.94,2.9,3.52,6,5.4,9,.93,1.48,1.84,2.71.5,4.47s-2.76,1.1-4,.49c-2.51-1.2-3.7-.14-4.54,2.06-.24.61-.79,1.14-.91,1.76-.3,1.58-4.18.65-2.5,3.19,1.46,2.2,3.89,1.06,5.94.51a6.16,6.16,0,0,0,1.35-.64c5.56-3.06,7.59-2.09,9,4.25.62,2.74-1.19,3.54-3.25,4s-4,.4-5.89.83c-.92.21-2.74-.39-2.53,1.5.2,1.73,1.71,1.85,3.1,1.68,1.8-.22,3.58-.66,5.39-.85,5.8-.63,8.28,2.1,7.18,7.89-.15.81-.56,1.57.17,2.66,2.59-.46,3.82-2,4.66-4.64,1.62-5.26,1-10.82,2.63-16a4.34,4.34,0,0,1,5.08-.74c4.6,2.53,9.39,2.57,14.35,1.79a3.67,3.67,0,0,1,2.81.69c2.1,6.17,1.09,8-5.21,9.31-1.32.27-2.73.31-3.39,1.68s-1.91,3.67-.45,3.82c3.9.4,6,4.89,10.14,4,.35-.07.44-.85.49-1.35.85-7.34,2.68-14.6-.39-22C850.47,461.73,847.58,457.23,849.9,452Z" transform="translate(-398.28 -59.64)"/><path class="cls-1" d="M676.9,151.06c.71,4.58,1.46,9.14,2.09,13.73.3,2.22,0,4.34-2,5.81-10.48,7.59-13.7,19.15-16.92,30.74-1.37,4.95-3.11,9.8-4.56,14.73-.67,2.27-1.7,3.58-4.25,2.6a1.25,1.25,0,0,0-.47-.16c-8.24.88-13.82-3.23-19.18-9-3.63-3.93-9.1-6-12.84-10.14-1.69-1.85-2.55.22-3.74.74-1.93,2.12-3.31,4.88-6.45,5.61-4.57-.85-8.16-3.54-11.64-6.37-2.55-2.08-4.48-2.47-6.23,1-2.09,4.15-5.67,5.45-10,4.06-2.68-.85-4.78-.48-6.75,1.59a10,10,0,0,1-9,3.3c-6.77-1.06-12.73,1.51-18.8,3.68-2.33.83-4.53,2.09-7.12,2a4.35,4.35,0,0,0-2.81.74c-1.9,1-2.9.55-2.41-1.78.22-1.05,1.36-2.37-.21-3s-2.23,1-3.13,1.89c-1.15,1.14-.72,3.92-3.49,3.39-1-.87-2.07-1.67-3-2.61-3.52-3.53-7.07-6.19-11.77-1.62a4.45,4.45,0,0,1-3.2,1.14c-7.43-1-13.39,1.43-18.22,8.22-1-2.91-.66-5.37-2.37-7.4-.46,2.13-.81,4.36-3.63,4.28-.84,0-.91.54-.92,1.33-.06,4.93-5.13,9.15-10.16,8.24-4.67-.84-8-.71-9.44,5.16-1,3.95-3.46,7.23-3.71,11.88a11.93,11.93,0,0,1-8.35,10.17c-1.54.48-2.53,1.48-3.78,2.22-3.89,2.31-6,5-3,9.47,1.24,1.85-.28,3.51-.74,5.19-.6,2.15-2.25,4.06,2,4.62,2.89.38.41,3,.21,4.5-.27,1.95-1.55,1.6-2.94.72-1.81-1.17-3.83-2.52-5.37,1.09,2.51.56,5.26,0,7.21,2.28,1.68,2,2.82-.32,4.1-1.12s2.35-2.2,4-1.22,1.34,2.53.83,4c-.88,2.57.55,4.06,2.4,5.39L457,292c-.57,3.21.54,7.1-4,8.61-3.49,1.17-5.61,1.09-6.86-3.25-1.51-5.24-5.24-9.68-10.36-11.31-7.6-2.42-9.84-8.25-11.66-14.76-.35-1.25,0-2.77-1.23-3.64s-2.68-2.27-3.79-2.07c-1.91.34-.94,2.48-1,3.84a39.5,39.5,0,0,1-.59,6.73c-4-5.29-2.79-11.3-1.84-16.9,1.25-7.38,5.71-13.68,8.42-20.58,4.24-10.81,11.47-19.8,18.44-28.57q6.7-8.43,13.23-17.08c1.7-2.24,3.9-3.33,6.95-1.76s6.49,2.56,9.68,4a6.07,6.07,0,0,0,4.78.27c6.43-2.18,13.13-3.71,18.43-8.41,4.86-4.31,10.52-4.1,15.86-1.61,7.12,3.32,14.12,2.35,21.43,1.23,11.25-1.72,20.48-7.14,28.54-14.74,6.85-6.45,11.37-14.62,15.71-22.86a5.17,5.17,0,0,1,1.71-.77c19.43-1.41,38.89-.39,58.34-.64,11.14-.14,22.29,0,33.43,0C673.25,147.7,676.07,147.54,676.9,151.06Z" transform="translate(-398.28 -59.64)"/><path class="cls-1" d="M585.05,521.88c2.51.3,4.21-.17,4-3.34-.22-3.68,2.77-3.84,5.32-4.7,2.9-1,3.77.77,4.9,2.74,3.83,6.73,8.48,7.57,14.33,2.19,8.73-8,19.82-11.16,30.44-15.31,1.68-.65,4-1.72,4.81,1.39.25,1,.38,2.13,1.82,1.55,1.14-.46,1.23-1.42.83-2.49-.46-1.25-1.11-2.69.37-3.59s2.87.09,4.21.75c5.41,2.71,9.54,7.1,14.26,10.72,3.21,2.48,1.08,5.45,1.71,8.1.74,3.08.92,5.26-2.72,6.53-1.9.67-2.62,2.92-3.47,4.73-.64,1.36-1.5,3-.27,4.17s3.17.74,4.78.54,2.87-1.44,2.48-3.13c-.68-2.93.46-2.77,2.81-2.5,4.3.5,8-1.9,11.47-3.9,2.08-1.2.28-3-1.48-4.1-1.11-.67-3.42-.42-2.88-2.62.51-2,1.81-.89,3.11-.56,1.54.39.88-1.31,1.24-2.06,1-2.19.39-4.69,1.08-6.84s-.54-4.25.35-6.56c2.59,5.42,7.3,9.49,8.94,15.41.31,1.12.17,2.56.83,3.34,3.57,4.18,3.6,6.63-2.55,8-3,.69-3,5.33.51,8.2,8,6.59,10.73,16.12,15.28,24.8-6.66,1.45-6.94,1.57-4.46,7.45,4,9.45.78,18.25-1.76,27.17-.82,2.88-2,5.66-2.69,8.56a6.75,6.75,0,0,1-5.66,5.51c-2.37,1.74-4.71,1.24-7-.06-3.26-.23-5.6,1.79-8.11,3.36-3.2,2-6.34,3.64-10.11,1-1.32-.9-3.11-.67-4.79-.74-5-.22-8.48-5.85-14.55-4.09-1.26.37-3.63-4.35-6.66-5.3a14.59,14.59,0,0,0-2.22-.5c-1.45,5.33-4.77,1.77-6.91,1.14a13.88,13.88,0,0,0-11.11,1c-.16-4,1.46-5.8,4.73-7,6.48-2.27,6.43-2.41,2.65-8.24a2,2,0,0,0-.27-.42c-2-1.91-1.64-6.26-7.35-4.24-3.2,1.12-10.88,1.3-11.69-6.45-.05-.48-.83-1-1.38-1.3-6.78-3.42-8.76-6.74-8.19-13.9.8-10.14.17-11.06-10.77-15.07,6.23-2.56,2.26-7.38,2.89-11.2.3-1.81-2.48-1.65-3.53-1.68-4.62-.13-5.69-3-6.38-7.37,3,2.48,5.36,4.92,9.22,5.65-3.51-5.92-9.73-8.64-13.52-13.7C582.22,520.57,583.77,521.59,585.05,521.88Z" transform="translate(-398.28 -59.64)"/><path class="cls-1" d="M578.94,148c5.23-9.6,9.26-19.88,14.64-29.3,4.85-8.51,11.87-15.87,17.07-24.38,1.14-1.87,3.79-2.5,5.86-2,13.4,3.27,25.32-.49,36-8.19,7.23-5.21,13.7-11.5,20.35-17.49a47.27,47.27,0,0,1,10-6.53c1.68-.88,3.12-.36,4.76-.1,3.07.47,2.32,1.72.75,3.09-3.12,2.73-6.45,5.22-9.46,8.06-7.46,7-12.73,15.15-13,25.89-.13,5.33,3.83,8.69,5.65,13.06.32.76.86,1.42,1.24,2.16,2.91,5.59,9.27,9.79,4.41,18C674.43,135,675.88,141.36,676,147c.68,1.37.32,2.26-1.23,2.48a29.62,29.62,0,0,1-4,.07q-43.95,0-87.92,0C581.43,149.55,579.38,150.68,578.94,148Z" transform="translate(-398.28 -59.64)"/><path class="cls-1" d="M827,676.92c-2.2,2.05-5,3.87-.68,6.8,1.87,1.26-2,8.71-4.92,9.08a15.54,15.54,0,0,1-6.9-.4c-11.14-3.95-21-2-29.52,6.09-1.8,1.73-2.88,1.91-5,.5A115.06,115.06,0,0,1,763,685.29c-5.58-5.6-13.24-6.67-19.91-9.88-4.21-2-9.65-2-12.12-7-.77-1.56-2.74-3-1.42-4.88s3.36-2,5.43-1.1c3.23,1.44,4.92-.61,6.6-2.82,2-2.63.08-4.24-1.44-6a60.33,60.33,0,0,0-4.88-5.65c-3.84-3.43-1.74-6.33.74-8.91,6.31-6.57,14.48-7.45,23-7,1.69.08,2.61,1.28,3.75,2.24,7.35,6.19,12.86,14.29,20.86,19.84,2.64,1.83,5.06,3.71,8.42,3.85,2.22.09,4,0,4-3,0-2,1.12-3.26,3.15-3,3.55.48,4.4-1.88,4.6-4.45.38-4.87,2.22-4,4.74-1.47,1,.94,1.88,1.93,3.38,1.88,2.29.49,3.19,2.06,4.59,4,3.12,4.21,4.24,9.72,8.58,13a8.49,8.49,0,0,1,.82,1.17c1.1,2.15,2.15,4.32,3.18,6.51C830.17,675,829.12,676.18,827,676.92Z" transform="translate(-398.28 -59.64)"/><path class="cls-1" d="M815,647.9c.12-3.7,1.9-7.64-3.19-10.09-2-1,.74-2.65,1.49-3.91s1.74-2.71,3.51-1.36c2.56,2,5,5.24,6.95-.65.48-1.46,2-.63,3-.06a10.91,10.91,0,0,1,4.65,5c.73,1.58,1.35,2.32,3.24.76,3.78-3.11,6-2.57,7.56,2.18,1.35,4,3.69,5.58,7.68,5.25.39,1.27.8,2.72,2.53,2.34,3.94-.85,4.58,2.07,5.61,4.64.37.89.38,2.86,2,.83,2.71,2.06,2.7,3.31-.09,6-4.7,4.52-9.46,9.3-11.88,15.68a6.59,6.59,0,0,1-1.32,2.66c-8.5,7.27-7.43,16.65-6,26.18a47,47,0,0,1,0,6.63c-3.88-.68-6.55-2.14-5.87-6.67.25-1.63-.83-2.83-1.72-4-4.16-5.57-3.57-11.32-.46-17,1.92-3.49-1.35-3.25-2.76-4.4,0-4.69-2.52-8.36-5-12l0,0c-1.65-2.53-4.45-4.5-3.64-8.19.24-1.1-.84-1.78-1.68-2.22C816.52,653.9,815.42,651.13,815,647.9Z" transform="translate(-398.28 -59.64)"/><path class="cls-1" d="M464.29,255.6c-5.43-1.76-4.66-1.47-2.6-7,2.19-5.82,4.17-9.22,11.54-9.27a13.23,13.23,0,0,0,13.07-10.76c.46-2.1,2.18-2.63,4.26-2.53,2.48.12,2.06,1.9,2.56,3.46,1.48,4.66-.5,8.71-1.68,13.16-2.19-1.11-4.25-2.72-6.47-.93s-1.2,4.33-.68,6.5a19.88,19.88,0,0,0,2.43,6.45c1.8,2.79,1.29,5.39-.29,8.7a69.56,69.56,0,0,1-10,15.77,17.37,17.37,0,0,1-10.22,5.63,3.48,3.48,0,0,1-4.17-1.77c-2.92-4.73-3.52-11.55-11-12.28-1-.1-.56-1.25-.17-2,.49-1,1.28-2.18,1.15-3.18-.44-3.5,1.18-4.59,4.39-4.9C459.74,260.32,462.83,259.13,464.29,255.6Z" transform="translate(-398.28 -59.64)"/><path class="cls-1" d="M591,642a12.24,12.24,0,0,1-2-8c1.59-1.36-1.7-4.6,2-5.15a8.71,8.71,0,0,1,4.07,4.83c.94,2.95,2.8,3.32,5.05,2-1.58-4.81-6.74-7.27-7.39-12.61-.18-1.49-1.84-1.1-2.94-1.11-2.16,0-4.38.33-6.47,0s-5.13-.68-3.83-4.45c.83-2.4-2.18-2-2.73-3.52,7.7-8.37,15.61-8.09,22.73.71,1.44,1.77,2.78,3.68,5.22,4.42,11.36,3.44,14.84,13.21,18.25,23,.21.61,0,1.36.25,2,1.16,3,1.31,5.22-3,5.08-.72,0-1.48,1.16-2.22,1.78-2.07,1.43-2.94-.53-4-1.54-2.48-2.35-6.3-3-8-6.33a2.76,2.76,0,0,0-3.59.22c-3.73,2.88-7,3.14-9.62-1.38C592.63,641.59,591.62,641.9,591,642Z" transform="translate(-398.28 -59.64)"/><path class="cls-1" d="M686.05,656.44c4.31,1.58,5.63-.55,6.58-3.68.52-1.69,1.2-3.79,2.5-4.71,2.76-1.93,2.64-3.37.21-5.26-1.57-1.22-1.23-2.44,0-3.77,4.33-4.69,7.28-10.35,12.81-14.31,4.49-3.21,6-9.41,6.75-15.11.69-5.05,2.77-9.54,5.22-13.89.79-1.4,2-3.56,3.52-3.06,2.07.66,1.51,3.17,1.14,4.86-1.76,8.1-3.78,16.13-5.53,24.23a15.26,15.26,0,0,1-3.14,6.65c-2.86,3.53-4.26,7.62-5.42,12.09-2.89,11.06-6.54,21.92-10,32.83-.66,2.11-1.74,4.08-4.64,3.42-2.35-.53-3.13-2-3.13-4.32C692.94,666.36,690.56,661.22,686.05,656.44Z" transform="translate(-398.28 -59.64)"/><path class="cls-1" d="M864.47,647c-5.34-.08-8.23-5.1-5.89-9.51.31-.59,1-1.3.88-1.74-1.93-6,3.21-4.76,6-5.85,1.53-.6,3.22-.79,4.8-1.26,5.69-1.67,7.28-7.26,3.36-11.5-1.09-1.17-3.54-2.31-.92-4.25,2.45-1.82,2.79,1,3.49,2,1.49,2.19,3.39,2.89,5.88,3q6.44.36,12.85,1.1c5.58.66,9.61,3.5,11.5,8.93.59,1.72,1.26,3.65-.72,4.94-1.61,1.05-3.24,2.53-5.43,1.18-3.52-2.18-7.63-2.19-11.5-2.91-5.25-1-9.26,1.85-12.61,5.48a64.34,64.34,0,0,0-5.77,7.47C868.77,646.42,866.84,647.54,864.47,647Z" transform="translate(-398.28 -59.64)"/><path class="cls-2" d="M538,214.12c3.75-.18,7-2.11,10.37-3.35,5.48-2,10.87-3.91,16.86-2.76a8,8,0,0,0,8.27-3.49c1.87-2.66,3.67-2.62,6.36-1.69,5.68,2,7.76,1.22,10.23-4.24,1.74-3.84,3.46-3.45,6.27-1.33,3.93,3,7.47,6.69,12.56,7.85.25.92,0,1.37-1,1-2.79-.17-5.64-1.94-8.25,1.09-.63.72-3.23.15-4.73-.38-2.89-1-5.38-.53-8.13.65-4,1.68-7.35,2.85-8.56,8.19-.93,4.12-3.77,8.65-9.28,9.35l0,0c-.1-7.34-8.53-13.37-17.4-11.83A56.67,56.67,0,0,0,536,218c0-.3,0-.61,0-.91C535.41,215.25,536.93,214.83,538,214.12Z" transform="translate(-398.28 -59.64)"/><path class="cls-3" d="M886,418c-4.58,2.54-6.6-1.81-9.12-3.79-4.89-3.85-9.27-8.34-16.5-6.18-.07-1.68,3.14-2.54.57-4,3.13-3.63,7.39-4.62,11.88-5.08,6.34-1.08,9.14,4.4,13.22,7.34a51,51,0,0,0,11.17,6.18,55.86,55.86,0,0,1,10.94,5.31c1.7,1.11,1.9,2.49,1.75,4.19-1.84,2.07-2.81,4.63-4,7.09,0-1.6-.22-3.1-2.33-3-3.7.2-7.24.12-9.54-3.55-.15-.23-1.49.28-2.28.45C890.42,420.59,890.68,416.35,886,418Z" transform="translate(-398.28 -59.64)"/><path class="cls-4" d="M850.84,471c-7.62,2.61-14.69-.87-22-2,.34-4.57.62-8.87,6.86-9.57,2.81-.31,4.26-6.11,2.76-9.32s-3.1-6.27-4.67-9.39c-.61-1.22-1.25-2.49-.19-3.71s2.74-1.13,4.14-.49a26.56,26.56,0,0,1,8,5.84c.42.43.93,1.51.79,1.66-4.52,4.35,1,7.32,1.46,11,1.38,3.13,2,6.52,3.53,9.64C852.55,466.56,852.86,469,850.84,471Z" transform="translate(-398.28 -59.64)"/><path class="cls-1" d="M752,150.07c-.62,3.73-3.81,3.59-6.46,4.32-3.45,1-6,1.6-5.4,6.91.51,4.23-4.38,6.76-8.32,8.7-3.29,1.62-5.28.34-6.67-2.59-1.29-2.72-4-2.72-6.33-3.29s-2.45-1-1.31-3.3c3.25-6.51,9.53-8.27,15.39-10.8a8.41,8.41,0,0,1,8.07,0c3.19.48,5.61-2.71,8.87-1.87C750.43,148.93,752.47,148.13,752,150.07Z" transform="translate(-398.28 -59.64)"/><path class="cls-4" d="M686,441c2.46,2,1.89,6.55,6,7.25.65.11.8,1.07.35,1.65-4.25,5.44-1.17,12.3-3.53,18.1a4.73,4.73,0,0,1-.92,2c-4-.14-8.53,1.3-10.55-4.08s-.65-13.75,3.79-16.27c3.91-2.22,1.89-6.07,3.72-8.64C685.29,440.5,685.65,440.5,686,441Z" transform="translate(-398.28 -59.64)"/><path class="cls-4" d="M441.93,603.4c2.47-5.78-.34-12.59,3.49-18.61,2.74-4.32,4.7-1,6.89-.18s5.07,1.79,2.75,5.23c-2.61,3.9-3.66,8-2.14,12.68.56,1.72.94,4.21-.91,5.58-1.62,1.2-3.23,3.65-5.55,2.39A8.87,8.87,0,0,1,441.93,603.4Z" transform="translate(-398.28 -59.64)"/><path class="cls-5" d="M909.87,421.92c-2.69-2.87-5.12-6-9.21-7.16-3.4-.93-6.91-3.66-9.38-4.05-3.72-.6-5-4-8.18-4.28-2.64-.2-.6-3.37-2.61-4.14-2.61-1-5.13-2.25-7.7-3.39,3.36-2.42,6.57-2,10.09,0,5.59,3.18,11.47,5.72,18,6.15,3.71,4.63,9.81,7.36,11,14Z" transform="translate(-398.28 -59.64)"/><path class="cls-4" d="M675.88,651.18c-3.52,3.77-8.11,4.3-10.77,7.73-.93,1.2-2.26.05-3-.65-7.89-7.14-13.71-16-19.89-24.55,4.72,1.46,9,3.22,11.6,7.75,1.66,2.9,3.73,5.48,8,3.46,1.83-.87,2.14,1.59,2.93,2.61,1.32,1.69,2,3.23,4.62,1.22C672.27,646.44,673.12,650.8,675.88,651.18Z" transform="translate(-398.28 -59.64)"/><path class="cls-4" d="M422,655.88c-1.21-13.8,5.67-25.36,10.36-37.53.45-1.16,1-2.78,2.73-2.24a4,4,0,0,1,2.23,1.82c.66,1.36-.78,2.1-1.57,2.76-5.55,4.59-6.14,10.79-5.55,17.24.62,6.73,3.29,9.22,10.06,10,1.12.14,2.39-.17,3.19,1.4-1.6,1.06-3.27,2.09-4.84,3.23-2,1.46-3.57,1.07-5.1-.8s-2.89-4.64-5.41-3.52c-2.88,1.27-4.43,4.37-5,7.56a41.15,41.15,0,0,0-.16,6C420.07,660.25,422,657.91,422,655.88Z" transform="translate(-398.28 -59.64)"/><path class="cls-2" d="M850.84,471c.27-3.13.12-6-1.89-8.81-1.46-2-1.11-4.75-.91-7.23L849.9,452c-.77,4.57,1.25,8.62,3.15,12.36,3.5,6.89,2.39,13.93,1.49,20.89-1.09,8.4-1.41,8.36-8.48,3.32a6.82,6.82,0,0,0-2.54-1.43c-4.1-.63-4.39-.81-4-1.28,2-2.23-.66-8,5.76-7C850,479.52,851.11,477.48,850.84,471Z" transform="translate(-398.28 -59.64)"/><path class="cls-4" d="M694.13,626.52c-6.6,8.46-11.47,9.2-16.45,3.5-2.75-3.16-2.42-6.41,1-8.89,1.87-1.37,3.79-2.67,5.69-4,1.34-.94,2.79-2.82,4.18-2.27,1.78.7,1.5,3.09,1.51,4.9a10.82,10.82,0,0,1-.24,4C688.29,627.44,689.59,628.27,694.13,626.52Z" transform="translate(-398.28 -59.64)"/><path class="cls-4" d="M440.76,555.53c-2.73-1.44-3.63-3.41-4.62-5.34-2.42-4.69-3.9-9.91-7.94-13.68-1.35-1.27-1.86-3.07-.52-4.44a5.48,5.48,0,0,1,5.44-1.58c1.68.43,3.18,1,2.89,3.25-.34,2.71.14,4.59,3.69,4,1.9-.32,1.85,1.84,2,2.86C442.35,545.49,442.47,550.41,440.76,555.53Z" transform="translate(-398.28 -59.64)"/><path class="cls-6" d="M686,441l-1.1,0c-.74-1.86-2.41-2.62-4-3.55-5.56-3.23-5.77-9.93,0-14C681.23,429.82,683.58,435.4,686,441Z" transform="translate(-398.28 -59.64)"/><path class="cls-3" d="M803.64,272.19c-2.16,2.75-3.76,5.26-5.83,7.3s-4.93,2.81-7.13-.17c-1.49-2-2-3.81,1.59-4.41S799.54,273.2,803.64,272.19Z" transform="translate(-398.28 -59.64)"/><path class="cls-4" d="M503.87,258.74c-.66-.69-1-.89-1.09-1.17-1-2.14-5.17-3.48-3.58-5.67,2.32-3.16,6.69-1.86,10.28-1.76.47,0,1.15.71,1.31,1.22a1.45,1.45,0,0,1-1.19,1.86C506.65,253.74,505.45,256.16,503.87,258.74Z" transform="translate(-398.28 -59.64)"/><path class="cls-1" d="M538,214.12l-2,3c-3-.45-6.49,3.12-9.11-1,1.22-.51,1.08-1.85,1.59-2.6,1.31-2,2.51-5.55,5.46-4.46s3.06,3.87-.24,5.83C536,216,536.25,212.6,538,214.12Z" transform="translate(-398.28 -59.64)"/><path class="cls-7" d="M614.9,652.88a15.26,15.26,0,0,1-9.76-2.44c-2.59-1.58-3.54-3.13-1.15-5.56C608.69,644.45,614.69,648.84,614.9,652.88Z" transform="translate(-398.28 -59.64)"/><path class="cls-1" d="M860,652.84c-2.31.89,2.77,2.77-.44,3.47s-1.44-2-2.13-3.08c-1.45-2.21-1.46-6-6.17-4.59-2.38.69-3.38-1.4-1.4-3.61C855.35,644.93,859.42,646.65,860,652.84Z" transform="translate(-398.28 -59.64)"/><path class="cls-8" d="M815,647.9c1.29,2.84,2.71,5.56,5.75,7,.91.42,2.23,1.23,1.91,2-1.49,3.68,1.55,6,2.27,9.06a30.3,30.3,0,0,1-5.91-7.64c-1.74-3.37-3.14-8.1-7.15-10.36Z" transform="translate(-398.28 -59.64)"/><path class="cls-9" d="M933.91,498.21c-.07,1.72.25,3.05-1.22,3.49s-2.12-.51-2.69-1.58c-.45-.88-.9-1.76-1.29-2.66-1.3-3,.65-6.16,2.45-6.64,3.19-.84,1.1,2.74,1.9,4.19A11.68,11.68,0,0,1,933.91,498.21Z" transform="translate(-398.28 -59.64)"/><path class="cls-10" d="M911.91,419c-3-5.19-8.26-8.57-11-14,5,1.78,8.31,5.76,11.88,9.37C914.61,416.25,913.27,417.66,911.91,419Z" transform="translate(-398.28 -59.64)"/><path class="cls-9" d="M772.41,634.43c1.91-1,4.29,0,4.79-3.06.4-2.4,2.58-.68,3.59-.23,1.79.78.27,1.85-.3,2.72C776.79,639.5,776.79,639.5,772.41,634.43Z" transform="translate(-398.28 -59.64)"/><path class="cls-11" d="M803,588.79a57.06,57.06,0,0,1,5-5.21,3.27,3.27,0,0,1,4.47,0c1.63,1.8-1.13,1.61-1.6,2.55a5.58,5.58,0,0,0-.77,3.73l-1.15.06c-1.31.53-2.62-.92-3.93,0C803.78,590.47,802.82,590.62,803,588.79Z" transform="translate(-398.28 -59.64)"/><path class="cls-5" d="M819.39,467.54c2.51.43,4-4.17,6.08-1.74,1.63,1.93.52,5.46-1.83,6.38C820.45,473.43,821,469.4,819.39,467.54Z" transform="translate(-398.28 -59.64)"/><path class="cls-12" d="M614.9,652.88c-2.82-3.77-6.18-6.83-10.91-8l2-1.92c4.49,1.89,8.17,5,12,7.87C617.31,652.06,616,652.35,614.9,652.88Z" transform="translate(-398.28 -59.64)"/><path class="cls-3" d="M616,591.26c2.31,1.73,5.13,3.18,4.31,6.46-.32,1.29-2.22,1.61-3.48,1C612.94,596.83,616.53,593.77,616,591.26Z" transform="translate(-398.28 -59.64)"/><path class="cls-13" d="M653.93,299.18c-2.7-.8-3.37,1.62-4.54,3-1.37,1.65-2.32,3.67-3.73,5.27-.85,1-1.17,3.63-2.85,2.5-1.87-1.25.39-2.51,1.2-3.54,2.55-3.22,4.23-7.19,8-9.36Z" transform="translate(-398.28 -59.64)"/><path class="cls-9" d="M645.21,472.67c2-1,3.88-.74,4.73-2.53.57-1.18,1.47-2.68,2.94-1.82,2.3,1.34,0,3.2,0,4.83,0,1.87-1.39,1.91-2.82,1.37Z" transform="translate(-398.28 -59.64)"/><path class="cls-5" d="M791.92,632.7c-2.09-.61-3-2.4-3.58-4.24-.4-1.23.4-2.55,1.75-2.2,1.76.46,4.16.84,4.38,3.11A3.42,3.42,0,0,1,791.92,632.7Z" transform="translate(-398.28 -59.64)"/><path class="cls-5" d="M844.55,638.39c3.74-.82,6.3-2.89,8.83-.28.75.76.77,2.2-.1,2.6C850.36,642.06,848.25,639.72,844.55,638.39Z" transform="translate(-398.28 -59.64)"/><path class="cls-9" d="M745,442.88a17,17,0,0,1,5.71,4.48c.55.6,1.25,1.35.62,2.08a1.85,1.85,0,0,1-2.66.07c-1.71-1.72-3.22-3.64-4.82-5.48C743.67,443.05,744,442.66,745,442.88Z" transform="translate(-398.28 -59.64)"/><path class="cls-14" d="M697,613c.15,1.68,1.83,3.71-1.29,4.59-3.31,1-3.64-1.69-4.65-3.58C692.65,611.61,694.79,612.24,697,613Z" transform="translate(-398.28 -59.64)"/><path class="cls-14" d="M457.05,292.06c.53-1.28-1.46-3,.49-3.92,1.13-.52,2.83-.93,3.78-.44,1.23.65.82,2.39.38,3.64-.6,1.71-1.86,1.57-3.25,1A6.9,6.9,0,0,0,457,292Z" transform="translate(-398.28 -59.64)"/><path class="cls-15" d="M824.92,665.88c3.41,3.28,6.89,6.52,5,12l-3-1c1.59-1.25,1.93-2.58.82-4.49S825.25,668.33,824.92,665.88Z" transform="translate(-398.28 -59.64)"/><path class="cls-16" d="M611,289.15a27.77,27.77,0,0,1-12.45,2.19c4-2,8.84-1.22,12.43-4.24C611,287.78,611,288.46,611,289.15Z" transform="translate(-398.28 -59.64)"/><path class="cls-5" d="M461,314.47c-.42-.3-.63-.38-.63-.46,0-2.12-1.63-4.39.48-6.31.49-.44,1.63-.63,1.72-.05A10,10,0,0,1,461,314.47Z" transform="translate(-398.28 -59.64)"/><path class="cls-17" d="M821.94,614.87c0,.36,0,.72,0,1.07l-9-3.84C817.45,610.1,819.42,613.28,821.94,614.87Z" transform="translate(-398.28 -59.64)"/><path class="cls-18" d="M422,655.88c.45,2-.75,4.18,1,5.93.1,1.78.34,3.6-2.12,5.9C421.43,663.16,420.15,659.48,422,655.88Z" transform="translate(-398.28 -59.64)"/><path class="cls-19" d="M749.79,588.7c0,2.85-.27,4.57-1.77,5.68-.55.41-1.13-.49-1.31-1.09C746,590.77,748.29,590.66,749.79,588.7Z" transform="translate(-398.28 -59.64)"/><path class="cls-20" d="M452.7,566.27c1.05.17,1.23.92,1.2,1.8a1.63,1.63,0,0,1-1.81,1.8c-.87,0-1.81-.23-1.66-1.25A3.18,3.18,0,0,1,452.7,566.27Z" transform="translate(-398.28 -59.64)"/><path class="cls-21" d="M607.94,206.13l1-1q3-2.52,6-5c0,.32,0,.65,0,1C612.84,203,612.12,207,607.94,206.13Z" transform="translate(-398.28 -59.64)"/><path class="cls-9" d="M805,589.92c1.32-2.16,2.62-1.48,3.93,0,.25,1.06.5,2.12.8,3.37C807.41,592.87,806.77,590.59,805,589.92Z" transform="translate(-398.28 -59.64)"/><path class="cls-20" d="M921,440.41c2.54-.55,4,.06,4.71,2,.11.29-.34,1.13-.57,1.15C923,443.7,922.55,441.75,921,440.41Z" transform="translate(-398.28 -59.64)"/><path class="cls-22" d="M633.12,616.54c-1.37-.17-1.11-1.44-1.41-2.29a.85.85,0,0,1,1-1.21c1,.13,1.95.62,2,1.83C634.7,615.8,634,616.32,633.12,616.54Z" transform="translate(-398.28 -59.64)"/><path class="cls-23" d="M591,628.78c-1.84,1.26,0,3.94-2,5.15-.31-1.69-.63-3.37-.94-5C589,628.64,590,627.37,591,628.78Z" transform="translate(-398.28 -59.64)"/><path class="cls-20" d="M587.11,572.23c.11-.86.56-1.7,1.38-1.71s1.29.83,1.36,1.7a1.29,1.29,0,0,1-1.37,1.56A1.27,1.27,0,0,1,587.11,572.23Z" transform="translate(-398.28 -59.64)"/><path class="cls-24" d="M596.8,561.77a1.89,1.89,0,0,1-2,1.44c-.85,0-.75-.86-.7-1.45.1-1.07.54-1.86,1.8-1.58C596.58,560.33,596.89,560.88,596.8,561.77Z" transform="translate(-398.28 -59.64)"/><path class="cls-25" d="M751.91,584.76c-2.31-1.66-2.21-2.9-1.11-4.55C752.43,581.32,751.8,582.74,751.91,584.76Z" transform="translate(-398.28 -59.64)"/><path class="cls-26" d="M621.14,454.05c1.18-2.35,2.27-3.09,4.16-2.93C624.79,453.16,623.31,453.36,621.14,454.05Z" transform="translate(-398.28 -59.64)"/><path class="cls-27" d="M697,613c-2.05-.09-4.12-.24-5.94,1l-1-2,7,.06Z" transform="translate(-398.28 -59.64)"/><path class="cls-28" d="M745,442.88,743.89,444c-1.21-.79-2.39-1.6-2.73-3.3A4.06,4.06,0,0,1,745,442.88Z" transform="translate(-398.28 -59.64)"/><path class="cls-19" d="M664,630.67c-.85-.17-1.54-.6-1.63-1.49-.06-.59.49-.71,1-.53.7.27,1.69.46,1.94,1S664.73,630.61,664,630.67Z" transform="translate(-398.28 -59.64)"/><path class="cls-29" d="M868.26,615.85a6.48,6.48,0,0,1-.92-1.86c-.07-.81.66-1,1.3-1s1.18.53.94,1.21C869.41,614.75,868.88,615.12,868.26,615.85Z" transform="translate(-398.28 -59.64)"/><path class="cls-29" d="M413.6,281.5c-1-.42-1.43-.84-1.31-1.57s.53-1.23,1.23-1.13c.23,0,.48.78.48,1.2A5.57,5.57,0,0,1,413.6,281.5Z" transform="translate(-398.28 -59.64)"/><path class="cls-19" d="M786.84,646c-.69-.15-1.48-.19-1.11-1.1a1.6,1.6,0,0,1,1.14-.69,1.12,1.12,0,0,1,1.34,1.05C788.18,646.07,787.32,645.83,786.84,646Z" transform="translate(-398.28 -59.64)"/><path class="cls-25" d="M585.05,521.88c-1.12.16-2.39-.09-3.14,1.12l-1.18-1.41C582.25,520.39,583.68,520.75,585.05,521.88Z" transform="translate(-398.28 -59.64)"/><path class="cls-30" d="M412.34,450.22a12.72,12.72,0,0,1-3.34-9.64c.36-4.78-1.09-8.91-3-13.28-3.64-8.17-2.17-16.89-.88-25.43.22-1.42,1-2,2.47-1.5a38.35,38.35,0,0,1,15.59,10.36c1.13,1.24.91,2.8.93,4.28,0,5.44,1.3,10.29,4.93,14.7,4.94,6,4.43,11.09-.93,16.76-1.93,2-3.07,4.81-5.66,6.23-.84.46-1.74,1.42-2.71.77s-.55-1.79-.38-2.76c.38-2.14,1.9-4.33-1.31-5.9C412.64,442.19,413.19,446.71,412.34,450.22Z" transform="translate(-398.28 -59.64)"/><path class="cls-2" d="M404,355.31c0-6.61,0-12.91,0-19.21,0-1-.46-2.68,1.36-2.58A2.46,2.46,0,0,1,408,336c-.07,6,2.86,10,7.52,13.66,2.57,2,2.57,6.65,6,9,1,.68-1.4,2.86-2.95,3.85C414.26,355.37,411.72,354,404,355.31Z" transform="translate(-398.28 -59.64)"/><path class="cls-16" d="M412.71,385.29a13.34,13.34,0,0,1,2.16,2c1,1.56,4.26,2.19,2.15,5.13-1.87,2.61-4.13,3-6.95,1.73-1.05-.47-2.47-.5-2.63-1.89s1.35-1.1,2.12-1.56C411.47,389.58,411.43,387.31,412.71,385.29Z" transform="translate(-398.28 -59.64)"/><path class="cls-31" d="M584.47,415.45c3.53-1.93,7-1.38,10.42-1.44,1.33,0,2.38.62,2.28,2s-1.51,1-2.33.92C591.38,416.52,587.93,416,584.47,415.45Z" transform="translate(-398.28 -59.64)"/><path class="cls-32" d="M607.39,420.71c1.19-1.94.68-4.83,3.08-5.18,1.38-.2,3.18,2.19,2.71,3.55C612.36,421.45,609.92,421.09,607.39,420.71Z" transform="translate(-398.28 -59.64)"/><path class="cls-8" d="M419.38,484c-2.79-.6-4.65,1.85-6.11-.83a2.3,2.3,0,0,1,.56-2.18C416.2,479.92,417.18,481.86,419.38,484Z" transform="translate(-398.28 -59.64)"/><path class="cls-33" d="M573.77,637.25a6.61,6.61,0,0,1,4.8,3C574.28,641,574.28,641,573.77,637.25Z" transform="translate(-398.28 -59.64)"/><path class="cls-12" d="M582.7,399.73a6.64,6.64,0,0,1-6.43-2.16C579.08,396.46,580.93,396.91,582.7,399.73Z" transform="translate(-398.28 -59.64)"/><path class="cls-27" d="M597,301.5c2.3-.26,3.78-1.67,5.55-.7.57.32.43,1.35-.17,1.68C600.69,303.43,599.06,303.2,597,301.5Z" transform="translate(-398.28 -59.64)"/><path class="cls-11" d="M569,225c-.92,1.62-1,3.47-1,5.47-3.8-3.58-3.79-3.64,1.09-5.43Z" transform="translate(-398.28 -59.64)"/><path class="cls-34" d="M571.48,352a5.33,5.33,0,0,1-1.58,4.84C568.41,354.65,568.85,353.32,571.48,352Z" transform="translate(-398.28 -59.64)"/><path class="cls-15" d="M543.22,385.21c2.72.25,2.84,2.2,3.87,4.21C544.65,388.65,543.6,387.54,543.22,385.21Z" transform="translate(-398.28 -59.64)"/><path class="cls-12" d="M534.21,238.22c1.64-.11,2.3,0,2.3.85s-.75.92-1.37.92-1.43.25-1.35-.73A1.85,1.85,0,0,1,534.21,238.22Z" transform="translate(-398.28 -59.64)"/><path class="cls-15" d="M436.91,501.88l-4,.45-.15-1.17,4.37-.24Z" transform="translate(-398.28 -59.64)"/><path class="cls-35" d="M563.93,469c0-.34,0-.68,0-1,1.51-.75,3-1.24,4.53,1Z" transform="translate(-398.28 -59.64)"/><path class="cls-36" d="M432.55,462.06l1,.54c-.2.34-.39.93-.61.94a1.5,1.5,0,0,1-1.13-.53C431.5,462.52,431.91,462.23,432.55,462.06Z" transform="translate(-398.28 -59.64)"/><path class="cls-37" d="M590.22,309.16a3.05,3.05,0,0,1-1.07.52c-.54,0-.95-.4-.66-.91a1.62,1.62,0,0,1,1.13-.62C590.05,308.12,590.6,308.31,590.22,309.16Z" transform="translate(-398.28 -59.64)"/><path class="cls-38" d="M574.26,293.09l1,1.13c-.32.24-.67.72-.94.68a1.36,1.36,0,0,1-.91-.81C573.37,293.88,573.9,293.5,574.26,293.09Z" transform="translate(-398.28 -59.64)"/><path class="cls-39" d="M853.91,428.57c-1.85-.84-3.79.6-4.41-2.09-.67-2.93,1.44-4.23,2.62-6s2.63-.49,3.89.25c.71.42,1.37.93,2.1,1.32,3.08,1.63,6.45,4.52,5.94,7.3-.63,3.41-5.4,4.48-8.56,6-2,1-3.59-1.18-3.32-3.51C852.29,430.77,853.21,429.82,853.91,428.57Z" transform="translate(-398.28 -59.64)"/><path class="cls-31" d="M886,418c1.15-1.55,2.71-2.86,4.54-1.78,2.69,1.59,1,4.43,1.27,6.71-3.36-.29-3.56,3.41-6,4.73C883.49,424.34,886,421.16,886,418Z" transform="translate(-398.28 -59.64)"/><path class="cls-9" d="M863.26,468.11h28.33v.5H863.06C863.12,468.44,863.19,468.27,863.26,468.11Z" transform="translate(-398.28 -59.64)"/><path class="cls-16" d="M766,508.78c-.31,1.07.48,3.08-1.67,2.66-1.43-.28-3.67-.63-3.6-2.54.06-1.69,1.23-3.64,3.34-3.54C766,505.45,766,507.27,766,508.78Z" transform="translate(-398.28 -59.64)"/><path class="cls-11" d="M892.68,466.93a4.3,4.3,0,0,1-3.92-3.84c-.25-1.44,1.33-.95,2.2-1.12,2.6-.48,3,1.45,3.49,3.22C894.85,466.64,893.87,466.86,892.68,466.93Z" transform="translate(-398.28 -59.64)"/><path class="cls-33" d="M748.41,552.78c2.58,1.57,5,1.18,4.82,3.6a3.19,3.19,0,0,1-2.55,1.84C748.08,557.75,749.41,555.53,748.41,552.78Z" transform="translate(-398.28 -59.64)"/><path class="cls-40" d="M798.76,553.84c-3-.83-3.92-2.79-6-4.7C796.79,549,797.47,551.17,798.76,553.84Z" transform="translate(-398.28 -59.64)"/><path class="cls-41" d="M840.59,476.36c-.59.21-1,.53-1.32.44s-.62-.56-.92-.87c.34-.21.72-.64,1-.58S840,475.88,840.59,476.36Z" transform="translate(-398.28 -59.64)"/><path class="cls-33" d="M428.12,256.47c-3.12,3.92-6.17,5.64-10.72,4.06C419.5,255.7,423.35,256,428.12,256.47Z" transform="translate(-398.28 -59.64)"/><path class="cls-15" d="M501.41,206.39c-1.22,1.08-2.31,2.3-4,.9a1.75,1.75,0,0,1,.11-1.66C498.89,204.64,500.19,204.87,501.41,206.39Z" transform="translate(-398.28 -59.64)"/><path class="cls-21" d="M616.05,171.6,608.77,168C611.37,167.82,613.94,167.71,616.05,171.6Z" transform="translate(-398.28 -59.64)"/><path class="cls-13" d="M436,242.77c.75,2,1.51,4.1,2.26,6.16C436.12,247.41,434.81,245.6,436,242.77Z" transform="translate(-398.28 -59.64)"/><path class="cls-12" d="M506.34,200.7a4.36,4.36,0,0,1,3,2.63c-.21.26-.37.65-.58.67C506.45,204.26,505.79,203.14,506.34,200.7Z" transform="translate(-398.28 -59.64)"/><path class="cls-23" d="M494.71,211c-.88,1.89-1.57,2.76-2.89,2.61-.25,0-.66-.77-.6-1.1C491.58,210.61,493,211.22,494.71,211Z" transform="translate(-398.28 -59.64)"/><path class="cls-33" d="M507.27,192.66a2.71,2.71,0,0,1,2,2.8,1.51,1.51,0,0,1-1.17.43C506.64,195.36,506.9,194.18,507.27,192.66Z" transform="translate(-398.28 -59.64)"/><path class="cls-15" d="M688.74,534.28c-2.67,1.36-4.21-.44-7-.48C685.11,530.72,686.48,533.47,688.74,534.28Z" transform="translate(-398.28 -59.64)"/><path class="cls-8" d="M787.06,670.46a6.46,6.46,0,0,1,6.51.94C790.75,674.37,789.46,671.47,787.06,670.46Z" transform="translate(-398.28 -59.64)"/><path class="cls-22" d="M600.1,203.53c-1.33.54-2.53,1.72-3.6.23-.15-.22-.22-.76-.09-.88C597.93,201.48,598.88,203.69,600.1,203.53Z" transform="translate(-398.28 -59.64)"/></svg>