<?xml version="1.0" encoding="UTF-8"?>
<svg id="Lag_1" data-name="Lag 1" xmlns="http://www.w3.org/2000/svg" viewBox="0 0 535.75 650.36">
  <defs>
    <style>
      .cls-1 {
        fill: #b7b7b7;
      }

      .cls-2 {
        fill: #ddd;
      }

      .cls-3 {
        fill: #f0f0f0;
      }

      .cls-4 {
        fill: #f4f4f4;
      }

      .cls-5 {
        fill: #cbcbcb;
      }

      .cls-6 {
        fill: #d1d1d1;
      }

      .cls-7 {
        fill: #fafafa;
      }

      .cls-8 {
        fill: #cacaca;
      }

      .cls-9 {
        fill: #d8d8d8;
      }

      .cls-10 {
        fill: #f6f6f6;
      }

      .cls-11 {
        fill: #f5f5f5;
      }

      .cls-12 {
        fill: #9f9f9f;
      }

      .cls-13, .cls-14 {
        fill: #4d594d;
      }

      .cls-15 {
        fill: #c9c9c9;
      }

      .cls-16 {
        fill: #c7c7c7;
      }

      .cls-17 {
        fill: #dedede;
      }

      .cls-18 {
        fill: #cfcfcf;
      }

      .cls-19 {
        fill: #d7d7d7;
      }

      .cls-20 {
        stroke: #c8c8c8;
      }

      .cls-20, .cls-21, .cls-14 {
        stroke-linecap: round;
        stroke-linejoin: round;
        stroke-width: 2px;
      }

      .cls-20, .cls-21, .cls-22 {
        fill: none;
      }

      .cls-23 {
        fill: #d4d4d4;
      }

      .cls-21, .cls-14 {
        stroke: #4d594d;
      }

      .cls-24 {
        fill: #c8c8c8;
      }

      .cls-25 {
        fill: #fdfdfd;
      }

      .cls-26 {
        fill: #fbfbfb;
      }

      .cls-27 {
        fill: #a3a3a3;
      }

      .cls-28 {
        fill: #f9f9f9;
      }

      .cls-29 {
        fill: #aaa;
      }

      .cls-30 {
        fill: #d3d3d3;
      }

      .cls-31 {
        fill: #ebebeb;
      }

      .cls-32 {
        fill: #d5d5d5;
      }

      .cls-33 {
        fill: #9b9b9b;
      }

      .cls-34 {
        fill: #ccc;
      }

      .cls-35 {
        fill: #f7f7f7;
      }

      .cls-36 {
        fill: #f1f1f1;
      }

      .cls-37 {
        fill: #cecece;
      }

      .cls-38 {
        fill: #f3f3f3;
      }

      .cls-39 {
        fill: #cdcdcd;
      }

      .cls-40 {
        fill: #f8f8f8;
      }

      .cls-41 {
        fill: #d2d2d2;
      }

      .cls-42 {
        fill: #f2f2f2;
      }

      .cls-43 {
        fill: #fefefe;
      }

      .cls-44 {
        fill: #fcfcfc;
      }

      .cls-45 {
        fill: #ededed;
      }

      .cls-46 {
        fill: #dfdfdf;
      }
    </style>
  </defs>
  <path class="cls-16" d="m10.84,409.38v-1c-1.58-14.76-1.33-29.69-6.64-44-4-10.73-1.46-21.93.13-32.9,1.46-10.01,1.78-20.16.94-30.24-.9-10.92.18-22-.47-32.95-.8-13.33,1.63-26.09,5.06-38.79.8-3,1-3.35,3.76-6.53.1,1.22.45,2.23.2,3.06-2.17,7.37,3.05,10.74,7.68,14.48,2.62,2.11,1.47,6,3.85,8.26,4.63-5.14,6.48-5.42,13.21-2,2.6,1.12,5.11,2.43,7.52,3.91,2.12,1.47,3.79,1.73,5.64-.12,2.29-2.29,3.58-1,4.7,1.25,2.06,4.15,4.56,8.13,6.18,12.45,2.07,5.51,5.86,2.32,8.76,2,2.66-.34,4.62-2.08,3.84-5.7-.6-2.79-1.23-5.95,1.5-8.39,1.58-1.43-.16-2.28-.86-3.27-2.47-3.49-5.63-6.48-6.86-10.85-.55-1.95-.22-3,1.56-3.27,6.4-1.09,9-6,11.7-11,.8-1.5,1.3-3.77,3.86-1.73,1.05.83,2.2-.34,3.33-.44,2.1-.17,5.44-.16,5-2.6-.49-2.88-3.48-1-5.44-.71-2.25.32-3.82,0-2.57-2.85,2.26-5.25,5.06-10.06,9.8-13.57,2.67-2,5.09-3.58,8.29-1.12.93.72,2.22.77,3.2.12,4-2,8.52-.36,9.94,3.63s2.09,8,5.41,11c1.5,1.34.5,2.76-.68,3.84-2.43,2.22-3.64,5.11-4.71,8.11-.39,1.08-.75,2.59-1.59,3-6,3.17-4.54,9-5.19,14-.13,1-1.07,3.13,1,3.12,1.47,0,3.55-.68,3.74-2.7.63-6.71,6.47-7.24,10.94-9.32,1.28-.6,3-.22,4.38-.68,2.11-.81,4.5-.06,5.78,1.81,1.2,1.68-1.12,2.73-1.75,4.12-1.65,3.69-.81,7.59.86,10.77,1.43,2.72,4.35,4.07,8.09,3,3.5-1,3.23-3.86,3.18-5.93s-2.26-.85-3.59-.58c-6.22,1.27-6.09,1.21-5.25-4.88.46-4.62,1.4-9.17,2.79-13.6,1.19-3.36-.91-5.39-1.93-7.84-.75-1.79-2.4-1.15-3.88-.5-3.16,1.39-6.37,2.67-10.39,4.34,1.85-4.8,4.79-8.17,6.1-12.36,1-3.11,1.44-5.26-2.51-6.46-3.06-.93-4.48-6.79-2.89-10.66.76-1.84,1.72-3.61,2.57-5.41,1.31-2.79.31-5.36-1.36-7.41-3.41-4.22-3.5-7.32.13-11.33,3.94-4.35,8.94-7.74,10.94-13.58,7-7.81,25.16-8.05,32.34-.44,1.78,1.64,2.29,4.25,1.26,6.44-.52,1.54-2.76,1.82-2.78,4.12.4-1.39,1.27-2.6,2.45-3.44,4.51-3.37,7.06-7.91,9.27-13.09,2-4.77,7.64-5.84,12.28-6.37,4.29-.49,8.76,1.11,13.08-.93,1-.45,2.24.36,3.35.65,3.85,1.25,4.67-3.58,7.74-3.87,5.45,2,9.2,6.34,13.48,10,3.29,2.77,6.54,5.61,10,8.22,2.82,2.15,6.24,1.93,9.59,1.8,1.56-.06,3.22-.14,2.21,2.38-5,12.25-3.22,24.66-1,37.12.8,4.41,1.29,8.82,4.55,12.33,1.07,1.13,1.14,2.86.18,4.08-1.09,1.53-2.32.54-3.57.33-4.2-.73-8.42-3.46-12.61.25-1,.89-2.2-.23-3.21-.72s-2.07-1.09-3.3-.5c-6.92,3.28-14.82,4.71-20.29,10.73-2,3.32-5.49,2.79-8.24,3.46,2.65.23,5.31-1.57,8.26-1.41,4.09-.91,7.82-2.45,10.52-5.89.65-.83,1.33-2.35,2.73-1.33,1.82,1.33,2.46.07,3.59-1,3.18-3,6.7-2.9,9.58.23,1.7,1.83,2.9,1.62,4.62.5,1.07-.8,2.26-1.42,3.52-1.85,3.53-.92,8-2.29,10.36.46s2.12,7.67,1.58,11.43c-.29,2-3.56,3.62-5.49,5.4-2.39,3.38-5.1,6.52-7.28,10,1.59-2.41,3.37-4.69,5.09-7,1.13-1.52,2.35-2.31,4.1-.93,2,2.1,3,4.71,4.07,7.34,2.1,5.25,5.59,8.37,11.47,9.79,6.42,1.64,13.18,1.37,19.46-.76,5.26-1.73,10.82-1.42,16.21-2.34,3.85-.66,9.43,3.11,10.28,6.88s4.08,5.19,6.52,7.15c2.92,2.34,3.22,4.46,2,7.68-1.75,4.47-3.26,9-3.07,14,.13,3.25-2.38,5.77-4.07,8.4-4,6.22-6.69,13.41-13.32,17.67-2,1.28-2.55,3.34-2.46,5.67.14,2,.07,4.01-.19,6-1.1,6.79-3.08,7.38-8.52,3.32-2.92-2.17-.66-4-.47-6.09.17-1.88,2.87-4.69-.28-5.44-2.94-.7-7-2.38-9.26,2-2.73,5.29-6.17,10.37-2.82,16.8,1.5,2.88-1.11,4.59-3.14,5.23-2.39.74-2.06-1.9-2.48-3.35q-1.68-5.81,2.95-10c-4.2-.72-7.37-5.9-11.89-.17-1.33,1.69-4.74.46-5.94-2.26-.86-1.94-2.9-4.46.82-5.54,3.09-.9,6.44-6.41,9.35.87,2.25-4.38,2.56-8.53,3.74-12.41.85-2.79-.75-4.36-3.28-5.22-5.39-1.85-9.22-.11-12.25,4.72-3.57,5.77-7.64,11.21-12.17,16.26-3.51,4.06-4.42,9.76-2.35,14.71,3,7.55,3.4,15.08,3.19,22.94-.14,5.25,2,10.49.12,15.77-.16.46.07,1.27-.2,1.44-4.81,3.17-7.47,7.44-7.42,13.35,0,.74-1.08,1.19-2,.45-.83-.55-1.6-1.2-2.27-1.93-5.12-7.21-12.8-5.72-18.89-3.58-3.56,1.26-6.81,2.56-10.59,2.54-.72,0-1.44.33-1.37,1.08.01,1.38.97,2.58,2.32,2.89,3.53.9,7,2,10.58,2.76,9.08,1.95,9.43,2.83,3.67,10.17-6.09,1.07-12.23.33-18.34.46-9.1.19-18.2-.18-25.25.13,12.86.21,27.77-.7,42.66.42.06,3.57,3.83,3.06,5.6,4.8-1,2.14-3.13,1.91-4.65,2.72-1.15.62-3.09,1.1-2.78,2.49,1.24,5.59-3,4.59-6,5.4s-5.89,1.4-8.47,2.79c-5.71,3.1-10.92,1.91-15.92-1.26-8.29-5.25-10-5.54-19.7-2.15,2.45,2.08,5.16,1,7.58,1.07s4.81.22,6.06,2.56c2.06,3.83,7.64,4.83,7.85,10.27.06,1.64,2.43,1.28,3.89,1.3h6.47c.45,1.87-1,2.56-2,3.15-2.74,1.63-4.72,4.29-5.48,7.39-1,3.44-7.05,4.14-5.06,9.55.35.94-2.69,1.09-3.91.65-3.1-1.14-5.38,0-7.84,1.69-1.89,1.27-3.87,2.64-6.36,2.63h-7.1c1.09,3.28,3.1,1.84,4.67,2,3.94.48,8.31-1.85,11.77,2,2.68,3,2.53,6.24-1.16,8-3.85,1.82-6.92,3.42-3.52,8.19.37.74.4,1.6.09,2.36-1.65,3.67-1.8,6.26,2.47,8.79,2.87,1.69,1.23,6.19,2.15,9.37.64,2.23,1.21,4,3.29,5.16,2.58,1.4,3.56,3.25,2.07,6.13-.85,1.99-1.27,4.13-1.22,6.29-.21,3.12-2.91,5.49-6.04,5.27-.97-.07-1.9-.38-2.71-.9-2.67-1.7-9,1.13-11.16,5.37-2,4.08-3.63,8.25.56,12.35,1.12,1.09,3.56,2.7,2.6,4.34-1.39,2.69-3.68,4.81-6.46,6-.33.08-.66.12-1,.11-2.12.17-4.48-.09-5.48,2.44-.1.63.13,1.27.61,1.69,2.41,1,5,2,7.59,1.13,5.78-1.94,9.42-1.4,14.36,1.52,3.16,1.87,5.8,5.15,10.22,4.39,1.89-.32,2.29,1.59,3,2.83,1.41,1.33,1.81,3.1,2.12,4.91-.23,2.78,1.51,5.35.86,8.18-1.64,2.36-6-1-6.37,2.49-.19,2,2.17,4.32,3.35,6.51.31.56.51,1.19.91,2.14-2.68.05-5.36-.28-7.94-1-2.06-.66-5.58,1-4.07-4.15.69-2.36-4.07-3.07-6.33-4.45-2-1.2-2.35,1.09-2.55,2.5-.25,1.78-1.7,1.9-2.89,2.29-3.37.95-6.5,2.63-9.16,4.91-1.21,1.11-2.73,2-4.53,1-3.5-2-6.05-.65-7.62,2.58-2,4-5.39,3.1-8.63,3-1.39,0-2-.75-2.22-2.15-.3-2,1-4.71-1.46-5.91-4-1.9-7.25-5.49-12.26-5-2.16.21-4.33.21-6.49,0-2.62-.24-5.51-.21-7.48-2.21-3.69-3.73-8.2-4-12.93-3.55-3.29.35-6.56,1-9.68-.75-.4-.22-1.21-.39-1.41-.18-4.48,4.52-8.59,1.81-13.37.19-3.13-1.06-3.95-1.94-3.83-4.83.35-5.64-.33-11.29-2-16.69-1.61-5,.23-10.43,2.33-14.89,3.95-8.44,2.64-16.75,1.43-25.25-1-6.68-2.68-13.24-.57-20.14,1.13-3.72-2.29-6.89-3-10.61-1-5.19-1.48-11-7.84-13.48-2.09-.82-3.84-1.53-6.1-1.07-6.05,1.24-8.34-.27-11.71-5.75-2.41-3.94-5.76-7.29-8.5-11-1.93-2.64-6.32-4.24-3.8-9,.62-1.16-1.53-1.24-2.48-1.75-1.67-.91-2.68-.45-3.72,1.07-2.06,3-1.52,9.47,1.27,13,.31.39.75.68,1,1.08,1.33,1.88,4.83,3.65,2.28,6.1-2.2,2.1-3.37-1.55-4.86-2.69-5.24-4-9.82-9-16.53-10.81-3.11-.83-3.65-2.72-2.4-5.69,3.29-7.84,6.04-15.89,8.22-24.11,1.34-4.78,2.01-9.72,2-14.68Z"/>
  <path class="cls-16" d="m451.74,392.38c1.93-2.39,2.23-5.71.76-8.41-.45-1.07-.83-2.17-1.13-3.29q-3.84-11.69-15.24-7c-1.08.39-2.21.63-3.35.73-1.52.33-3.05-.53-3.56-2-.82-1.86.21-2.72,1.52-3.64,3.67-2.57,7.18-5.38,11-7.77,7.6-4.81,13.23-12.09,21-16.6,1.53,2.55,4.2,1.95,6.48,2.65,3.6,1.11,6.69,3.56,9.52,6.14s5.57,4.65,9.32,5.28c1.27,2.05-.28,4.17.22,6.74,1.87-1.47,3.39-3.24,5.75-3.32,4.51.5,8.11,3.79,12.82,3.95,1.64.06,1.72,2.08.9,3.59-2.87,5.3-3.27,10.77-.37,16.09,4.34,7.94,4,17,6.68,25.35.47,1.44-.35,2.59-.55,3.87-.15,1-.85,2.47-.48,2.79,2.56,2.21,5.63,4.09,2.06,7.86,4.77,1.81,2.86,7.83,6.57,10.38,2,1.37,2.11,3.58,2,5.84-.14,4.24-7.31,11.38-11.43,11.26-3.58-.1-8.3-8.68-6.86-12.49.35-.91,2.07-2,0-2.69-1.66-.58-1.79,1.1-2,2.16-.57,3.12-2.22,4.35-5.27,3.16-3.92-1.54-6.52,1.77-9.75,2.68-10.31,2.91-16.71,9.88-19,20.27-2.47,11.13,3.16,16.37,12.89,18.33,8,1.6,14.44,8.42,14.43,16.55,0,11-4.83,15.76-16.07,15.46-6.6-.18-11.88,1.9-16.32,6.81-2.93,3.23-5.6,6.77-11,6.74-3.19,0-4.49,3.58-4.31,6.34s2.77,3.32,5.37,3.16c2.32-.14,4.66,0,7-.09s4.58.64,5,3.08c.37,2.09-.28,4.62-2.63,5.35-3.42,1.07-3.46,3-2.21,5.65.45,1.07.82,2.18,1.1,3.31,1.13,3.93,4.48,8.12-3.51,9.45-3.12.51-5.43,5.08-9.86,4.61-1.18-.13-2.63.08-3.23-.81-3.33-4.89-8.77-5.33-13.73-6.9-3.61-1.15-5.65-4.53-8.61-6.63-.3-.25-.4-.49-.29-.73s.2-.35.31-.35c2.85-.31,3.73-1.55,1.51-3.76-1.81-1.8-3.19-4-6.34-4.34-3.74-.41-2.43-4.5-4-6.42.8-1.76,1.81-.75,2.66-.63,2.32.33,2.07-1.68,2.63-2.9s.7-2.66-.92-2.68c-3.39,0-4.87-3-7.44-4.27-2-2-.23-3.49.75-5.45-2.05,0-3.18,1.22-4.38,2.48-.93,1-1.54,2.65-3.45,1.89-4-3.39-9.39-3.06-13.89-4.95-5.2-2.19-10-2.77-15-.11-1.26.53-2.69.44-3.88-.23-1.78-.85-3.08-1.67-5.13.38s-3.88-1.29-5.87-2-.47-2.22,0-3.31c1.08-2.55-1.64-11.83-4.16-13-4.61-2.21-7.76-6.22-11.81-9.11-1.31-.88-1.72-2.63-.92-4,.36-1.48,1.8-2.42,3.3-2.16,6.59.29,8.43-3.09,7.69-9.62-.64-5.64-.46-11.38-3.5-16.32-1.5-2.44-2.64-7.17-7.48-3.69-.93.67-2,.23-2.19-1.06-.18-1,0-2.24,1.19-2.36,3.17-.29,6.46,0,6.72-4.63.3-5.33-.94-10-5.33-13.27-4-2.94-7.79-6.29-13.19-6.48-1,0-2.07-.84-3.41-1.43,1.64-2,3.47-1.26,5.11-1.11,1.48.13,3,.74,4.41.6,1.77-.17,4.49,1.36,5.11-1.37.51-2.25-2.15-2.62-3.68-3.41-2.28-1-4.22-2.65-5.56-4.75-2.11-3.56-6.2-2.43-9.42-3.35-1.06-.3-2.6.17-2.84-1.37-.28-1.85,1.48-2,2.65-2.36,3.4-.94,6.58.12,9.63,1.55,3.58,1.69,7.17,2,10.39-.48,3-2.28,4.49-1,5.61,1.8,1.45,3.62,3.76,6.07,7.88,6.37.6-1.44-.42-2.33-.86-3.31-.69-1.53-1.78-3.05-.21-4.54s2.67,0,3.79.95c.66.54,1.51,1.24,2.12.35,2.43-3.49,6.49-3.56,9.87-5.12,2.36-1.1,4.18-3,3.59-6.38-1.27-7.19,1.2-10.94,8.32-11.24,4.27-.18,5.74-2.22,7.09-5.44,3.7-8.84-.61-15.62-10.13-15.81-7.48-.14-13.55-3.66-15.89-9.86,8.16,7.09,17.7,8,27.07,9.46,1.75.28,3.23-.59,4.79-1.06s2.82-.64,4.24.36c5,3.51,10,3.1,15.31-.92,1.25-.94,2.29-3.75,4.27-1.89s0,3.33-1,5.33c-2.14,4.45-3,9.05-9.8,6.58-.67-.24-2.48,3.45-.82,5.94,1.94,2.9,3.52,6,5.4,9,.93,1.48,1.84,2.71.5,4.47s-2.76,1.1-4,.49c-2.51-1.2-3.7-.14-4.54,2.06-.24.61-.79,1.14-.91,1.76-.3,1.58-4.18.65-2.5,3.19,1.46,2.2,3.89,1.06,5.94.51.47-.16.93-.37,1.35-.64,5.56-3.06,7.59-2.09,9,4.25.62,2.74-1.19,3.54-3.25,4s-4,.4-5.89.83c-.92.21-2.74-.39-2.53,1.5.2,1.73,1.71,1.85,3.1,1.68,1.8-.22,3.58-.66,5.39-.85,5.8-.63,8.28,2.1,7.18,7.89-.15.81-.56,1.57.17,2.66,2.59-.46,3.82-2,4.66-4.64,1.62-5.26,1-10.82,2.63-16,1.35-1.33,3.41-1.63,5.08-.74,4.6,2.53,9.39,2.57,14.35,1.79.99-.16,2.01.08,2.81.69,2.1,6.17,1.09,8-5.21,9.31-1.32.27-2.73.31-3.39,1.68s-1.91,3.67-.45,3.82c3.9.4,6,4.89,10.14,4,.35-.07.44-.85.49-1.35.85-7.34,2.68-14.6-.39-22-1.7-4.63-4.59-9.13-2.27-14.36Z"/>
  <path class="cls-16" d="m278.74,91.44c.71,4.58,1.46,9.14,2.09,13.73.3,2.22,0,4.34-2,5.81-10.48,7.59-13.7,19.15-16.92,30.74-1.37,4.95-3.11,9.8-4.56,14.73-.67,2.27-1.7,3.58-4.25,2.6-.14-.08-.3-.14-.47-.16-8.24.88-13.82-3.23-19.18-9-3.63-3.93-9.1-6-12.84-10.14-1.69-1.85-2.55.22-3.74.74-1.93,2.12-3.31,4.88-6.45,5.61-4.57-.85-8.16-3.54-11.64-6.37-2.55-2.08-4.48-2.47-6.23,1-2.09,4.15-5.67,5.45-10,4.06-2.68-.85-4.78-.48-6.75,1.59-2.24,2.56-5.63,3.8-9,3.3-6.77-1.06-12.73,1.51-18.8,3.68-2.33.83-4.53,2.09-7.12,2-.99-.08-1.99.18-2.81.74-1.9,1-2.9.55-2.41-1.78.22-1.05,1.36-2.37-.21-3s-2.23,1-3.13,1.89c-1.15,1.14-.72,3.92-3.49,3.39-1-.87-2.07-1.67-3-2.61-3.52-3.53-7.07-6.19-11.77-1.62-.87.79-2.02,1.2-3.2,1.14-7.43-1-13.39,1.43-18.22,8.22-1-2.91-.66-5.37-2.37-7.4-.46,2.13-.81,4.36-3.63,4.28-.84,0-.91.54-.92,1.33-.06,4.93-5.13,9.15-10.16,8.24-4.67-.84-8-.71-9.44,5.16-1,3.95-3.46,7.23-3.71,11.88-.49,4.76-3.78,8.76-8.35,10.17-1.54.48-2.53,1.48-3.78,2.22-3.89,2.31-6,5-3,9.47,1.24,1.85-.28,3.51-.74,5.19-.6,2.15-2.25,4.06,2,4.62,2.89.38.41,3,.21,4.5-.27,1.95-1.55,1.6-2.94.72-1.81-1.17-3.83-2.52-5.37,1.09,2.51.56,5.26,0,7.21,2.28,1.68,2,2.82-.32,4.1-1.12s2.35-2.2,4-1.22,1.34,2.53.83,4c-.88,2.57.55,4.06,2.4,5.39l-.14-.15c-.57,3.21.54,7.1-4,8.61-3.49,1.17-5.61,1.09-6.86-3.25-1.51-5.24-5.24-9.68-10.36-11.31-7.6-2.42-9.84-8.25-11.66-14.76-.35-1.25,0-2.77-1.23-3.64s-2.68-2.27-3.79-2.07c-1.91.34-.94,2.48-1,3.84,0,2.26-.2,4.51-.59,6.73-4-5.29-2.79-11.3-1.84-16.9,1.25-7.38,5.71-13.68,8.42-20.58,4.24-10.81,11.47-19.8,18.44-28.57,4.47-5.62,8.88-11.31,13.23-17.08,1.7-2.24,3.9-3.33,6.95-1.76s6.49,2.56,9.68,4c1.49.74,3.22.84,4.78.27,6.43-2.18,13.13-3.71,18.43-8.41,4.86-4.31,10.52-4.1,15.86-1.61,7.12,3.32,14.12,2.35,21.43,1.23,11.25-1.72,20.48-7.14,28.54-14.74,6.85-6.45,11.37-14.62,15.71-22.86.52-.36,1.1-.62,1.71-.77,19.43-1.41,38.89-.39,58.34-.64,11.14-.14,22.29,0,33.43,0,2.63-.03,5.45-.19,6.28,3.33Z"/>
  <path class="cls-16" d="m186.89,462.26c2.51.3,4.21-.17,4-3.34-.22-3.68,2.77-3.84,5.32-4.7,2.9-1,3.77.77,4.9,2.74,3.83,6.73,8.48,7.57,14.33,2.19,8.73-8,19.82-11.16,30.44-15.31,1.68-.65,4-1.72,4.81,1.39.25,1,.38,2.13,1.82,1.55,1.14-.46,1.23-1.42.83-2.49-.46-1.25-1.11-2.69.37-3.59s2.87.09,4.21.75c5.41,2.71,9.54,7.1,14.26,10.72,3.21,2.48,1.08,5.45,1.71,8.1.74,3.08.92,5.26-2.72,6.53-1.9.67-2.62,2.92-3.47,4.73-.64,1.36-1.5,3-.27,4.17s3.17.74,4.78.54,2.87-1.44,2.48-3.13c-.68-2.93.46-2.77,2.81-2.5,4.3.5,8-1.9,11.47-3.9,2.08-1.2.28-3-1.48-4.1-1.11-.67-3.42-.42-2.88-2.62.51-2,1.81-.89,3.11-.56,1.54.39.88-1.31,1.24-2.06,1-2.19.39-4.69,1.08-6.84s-.54-4.25.35-6.56c2.59,5.42,7.3,9.49,8.94,15.41.31,1.12.17,2.56.83,3.34,3.57,4.18,3.6,6.63-2.55,8-3,.69-3,5.33.51,8.2,8,6.59,10.73,16.12,15.28,24.8-6.66,1.45-6.94,1.57-4.46,7.45,4,9.45.78,18.25-1.76,27.17-.82,2.88-2,5.66-2.69,8.56-.5,2.86-2.78,5.08-5.66,5.51-2.37,1.74-4.71,1.24-7-.06-3.26-.23-5.6,1.79-8.11,3.36-3.2,2-6.34,3.64-10.11,1-1.32-.9-3.11-.67-4.79-.74-5-.22-8.48-5.85-14.55-4.09-1.26.37-3.63-4.35-6.66-5.3-.73-.22-1.47-.39-2.22-.5-1.45,5.33-4.77,1.77-6.91,1.14-3.68-1.23-7.71-.87-11.11,1-.16-4,1.46-5.8,4.73-7,6.48-2.27,6.43-2.41,2.65-8.24-.07-.15-.16-.29-.27-.42-2-1.91-1.64-6.26-7.35-4.24-3.2,1.12-10.88,1.3-11.69-6.45-.05-.48-.83-1-1.38-1.3-6.78-3.42-8.76-6.74-8.19-13.9.8-10.14.17-11.06-10.77-15.07,6.23-2.56,2.26-7.38,2.89-11.2.3-1.81-2.48-1.65-3.53-1.68-4.62-.13-5.69-3-6.38-7.37,3,2.48,5.36,4.92,9.22,5.65-3.51-5.92-9.73-8.64-13.52-13.7.28-2.35,1.83-1.33,3.11-1.04Z"/>
  <path class="cls-16" d="m180.78,88.38c5.23-9.6,9.26-19.88,14.64-29.3,4.85-8.51,11.87-15.87,17.07-24.38,1.14-1.87,3.79-2.5,5.86-2,13.4,3.27,25.32-.49,36-8.19,7.23-5.21,13.7-11.5,20.35-17.49,3.04-2.59,6.4-4.78,10-6.53,1.68-.88,3.12-.36,4.76-.1,3.07.47,2.32,1.72.75,3.09-3.12,2.73-6.45,5.22-9.46,8.06-7.46,7-12.73,15.15-13,25.89-.13,5.33,3.83,8.69,5.65,13.06.32.76.86,1.42,1.24,2.16,2.91,5.59,9.27,9.79,4.41,18-2.78,4.73-1.33,11.09-1.21,16.73.68,1.37.32,2.26-1.23,2.48-1.33.11-2.67.14-4,.07h-87.92c-1.42,0-3.47,1.13-3.91-1.55Z"/>
  <path class="cls-16" d="m428.84,617.3c-2.2,2.05-5,3.87-.68,6.8,1.87,1.26-2,8.71-4.92,9.08-2.3.39-4.66.25-6.9-.4-11.14-3.95-21-2-29.52,6.09-1.8,1.73-2.88,1.91-5,.5-6.08-4.02-11.77-8.61-16.98-13.7-5.58-5.6-13.24-6.67-19.91-9.88-4.21-2-9.65-2-12.12-7-.77-1.56-2.74-3-1.42-4.88s3.36-2,5.43-1.1c3.23,1.44,4.92-.61,6.6-2.82,2-2.63.08-4.24-1.44-6-1.51-1.98-3.14-3.87-4.88-5.65-3.84-3.43-1.74-6.33.74-8.91,6.31-6.57,14.48-7.45,23-7,1.69.08,2.61,1.28,3.75,2.24,7.35,6.19,12.86,14.29,20.86,19.84,2.64,1.83,5.06,3.71,8.42,3.85,2.22.09,4,0,4-3,0-2,1.12-3.26,3.15-3,3.55.48,4.4-1.88,4.6-4.45.38-4.87,2.22-4,4.74-1.47,1,.94,1.88,1.93,3.38,1.88,2.29.49,3.19,2.06,4.59,4,3.12,4.21,4.24,9.72,8.58,13,.31.37.58.76.82,1.17,1.1,2.15,2.15,4.32,3.18,6.51,1.1,2.38.05,3.56-2.07,4.3Z"/>
  <path class="cls-16" d="m416.84,588.28c.12-3.7,1.9-7.64-3.19-10.09-2-1,.74-2.65,1.49-3.91s1.74-2.71,3.51-1.36c2.56,2,5,5.24,6.95-.65.48-1.46,2-.63,3-.06,2.05,1.13,3.67,2.88,4.65,5,.73,1.58,1.35,2.32,3.24.76,3.78-3.11,6-2.57,7.56,2.18,1.35,4,3.69,5.58,7.68,5.25.39,1.27.8,2.72,2.53,2.34,3.94-.85,4.58,2.07,5.61,4.64.37.89.38,2.86,2,.83,2.71,2.06,2.7,3.31-.09,6-4.7,4.52-9.46,9.3-11.88,15.68-.23.98-.68,1.89-1.32,2.66-8.5,7.27-7.43,16.65-6,26.18.16,2.21.16,4.42,0,6.63-3.88-.68-6.55-2.14-5.87-6.67.25-1.63-.83-2.83-1.72-4-4.16-5.57-3.57-11.32-.46-17,1.92-3.49-1.35-3.25-2.76-4.4,0-4.69-2.52-8.36-5-12h0c-1.65-2.53-4.45-4.5-3.64-8.19.24-1.1-.84-1.78-1.68-2.22-3.09-1.6-4.19-4.37-4.61-7.6Z"/>
  <path class="cls-16" d="m66.13,195.98c-5.43-1.76-4.66-1.47-2.6-7,2.19-5.82,4.17-9.22,11.54-9.27,6.38.04,11.88-4.49,13.07-10.76.46-2.1,2.18-2.63,4.26-2.53,2.48.12,2.06,1.9,2.56,3.46,1.48,4.66-.5,8.71-1.68,13.16-2.19-1.11-4.25-2.72-6.47-.93s-1.2,4.33-.68,6.5c.43,2.28,1.25,4.46,2.43,6.45,1.8,2.79,1.29,5.39-.29,8.7-2.61,5.68-5.97,10.99-10,15.77-2.66,3-6.27,4.99-10.22,5.63-1.64.52-3.41-.23-4.17-1.77-2.92-4.73-3.52-11.55-11-12.28-1-.1-.56-1.25-.17-2,.49-1,1.28-2.18,1.15-3.18-.44-3.5,1.18-4.59,4.39-4.9,3.33-.33,6.42-1.52,7.88-5.05Z"/>
  <path class="cls-16" d="m192.84,582.38c-1.57-2.36-2.28-5.18-2-8,1.59-1.36-1.7-4.6,2-5.15,1.91,1.04,3.37,2.77,4.07,4.83.94,2.95,2.8,3.32,5.05,2-1.58-4.81-6.74-7.27-7.39-12.61-.18-1.49-1.84-1.1-2.94-1.11-2.16,0-4.38.33-6.47,0s-5.13-.68-3.83-4.45c.83-2.4-2.18-2-2.73-3.52,7.7-8.37,15.61-8.09,22.73.71,1.44,1.77,2.78,3.68,5.22,4.42,11.36,3.44,14.84,13.21,18.25,23,.21.61,0,1.36.25,2,1.16,3,1.31,5.22-3,5.08-.72,0-1.48,1.16-2.22,1.78-2.07,1.43-2.94-.53-4-1.54-2.48-2.35-6.3-3-8-6.33-1.09-.82-2.61-.73-3.59.22-3.73,2.88-7,3.14-9.62-1.38-.15-.36-1.16-.05-1.78.05Z"/>
  <path class="cls-16" d="m287.89,596.82c4.31,1.58,5.63-.55,6.58-3.68.52-1.69,1.2-3.79,2.5-4.71,2.76-1.93,2.64-3.37.21-5.26-1.57-1.22-1.23-2.44,0-3.77,4.33-4.69,7.28-10.35,12.81-14.31,4.49-3.21,6-9.41,6.75-15.11.69-5.05,2.77-9.54,5.22-13.89.79-1.4,2-3.56,3.52-3.06,2.07.66,1.51,3.17,1.14,4.86-1.76,8.1-3.78,16.13-5.53,24.23-.49,2.44-1.57,4.72-3.14,6.65-2.86,3.53-4.26,7.62-5.42,12.09-2.89,11.06-6.54,21.92-10,32.83-.66,2.11-1.74,4.08-4.64,3.42-2.35-.53-3.13-2-3.13-4.32.02-6.05-2.36-11.19-6.87-15.97Z"/>
  <path class="cls-16" d="m466.31,587.38c-5.34-.08-8.23-5.1-5.89-9.51.31-.59,1-1.3.88-1.74-1.93-6,3.21-4.76,6-5.85,1.53-.6,3.22-.79,4.8-1.26,5.69-1.67,7.28-7.26,3.36-11.5-1.09-1.17-3.54-2.31-.92-4.25,2.45-1.82,2.79,1,3.49,2,1.49,2.19,3.39,2.89,5.88,3,4.29.24,8.58.61,12.85,1.1,5.58.66,9.61,3.5,11.5,8.93.59,1.72,1.26,3.65-.72,4.94-1.61,1.05-3.24,2.53-5.43,1.18-3.52-2.18-7.63-2.19-11.5-2.91-5.25-1-9.26,1.85-12.61,5.48-2.1,2.35-4.03,4.84-5.77,7.47-1.62,2.34-3.55,3.46-5.92,2.92Z"/>
  <path class="cls-25" d="m139.84,154.5c3.75-.18,7-2.11,10.37-3.35,5.48-2,10.87-3.91,16.86-2.76,3.21.64,6.49-.74,8.27-3.49,1.87-2.66,3.67-2.62,6.36-1.69,5.68,2,7.76,1.22,10.23-4.24,1.74-3.84,3.46-3.45,6.27-1.33,3.93,3,7.47,6.69,12.56,7.85.25.92,0,1.37-1,1-2.79-.17-5.64-1.94-8.25,1.09-.63.72-3.23.15-4.73-.38-2.89-1-5.38-.53-8.13.65-4,1.68-7.35,2.85-8.56,8.19-.93,4.12-3.77,8.65-9.28,9.35h0c-.1-7.34-8.53-13.37-17.4-11.83-5.4.85-10.64,2.47-15.57,4.82v-.91c-.59-1.84.93-2.26,2-2.97Z"/>
  <path class="cls-8" d="m487.84,358.38c-4.58,2.54-6.6-1.81-9.12-3.79-4.89-3.85-9.27-8.34-16.5-6.18-.07-1.68,3.14-2.54.57-4,3.13-3.63,7.39-4.62,11.88-5.08,6.34-1.08,9.14,4.4,13.22,7.34,3.45,2.52,7.2,4.6,11.17,6.18,3.83,1.37,7.5,3.15,10.94,5.31,1.7,1.11,1.9,2.49,1.75,4.19-1.84,2.07-2.81,4.63-4,7.09,0-1.6-.22-3.1-2.33-3-3.7.2-7.24.12-9.54-3.55-.15-.23-1.49.28-2.28.45-1.34-2.37-1.08-6.61-5.76-4.96Z"/>
  <path class="cls-24" d="m452.68,411.38c-7.62,2.61-14.69-.87-22-2,.34-4.57.62-8.87,6.86-9.57,2.81-.31,4.26-6.11,2.76-9.32s-3.1-6.27-4.67-9.39c-.61-1.22-1.25-2.49-.19-3.71s2.74-1.13,4.14-.49c3.01,1.43,5.72,3.41,8,5.84.42.43.93,1.51.79,1.66-4.52,4.35,1,7.32,1.46,11,1.38,3.13,2,6.52,3.53,9.64,1.03,1.9,1.34,4.34-.68,6.34Z"/>
  <path class="cls-16" d="m353.84,90.45c-.62,3.73-3.81,3.59-6.46,4.32-3.45,1-6,1.6-5.4,6.91.51,4.23-4.38,6.76-8.32,8.7-3.29,1.62-5.28.34-6.67-2.59-1.29-2.72-4-2.72-6.33-3.29s-2.45-1-1.31-3.3c3.25-6.51,9.53-8.27,15.39-10.8,2.51-1.37,5.56-1.37,8.07,0,3.19.48,5.61-2.71,8.87-1.87.59.78,2.63-.02,2.16,1.92Z"/>
  <path class="cls-24" d="m287.84,381.38c2.46,2,1.89,6.55,6,7.25.65.11.8,1.07.35,1.65-4.25,5.44-1.17,12.3-3.53,18.1-.15.73-.46,1.41-.92,2-4-.14-8.53,1.3-10.55-4.08s-.65-13.75,3.79-16.27c3.91-2.22,1.89-6.07,3.72-8.64.43-.51.79-.51,1.14-.01Z"/>
  <path class="cls-24" d="m43.77,543.78c2.47-5.78-.34-12.59,3.49-18.61,2.74-4.32,4.7-1,6.89-.18s5.07,1.79,2.75,5.23c-2.61,3.9-3.66,8-2.14,12.68.56,1.72.94,4.21-.91,5.58-1.62,1.2-3.23,3.65-5.55,2.39-2.61-1.45-4.31-4.12-4.53-7.09Z"/>
  <path class="cls-39" d="m511.71,362.3c-2.69-2.87-5.12-6-9.21-7.16-3.4-.93-6.91-3.66-9.38-4.05-3.72-.6-5-4-8.18-4.28-2.64-.2-.6-3.37-2.61-4.14-2.61-1-5.13-2.25-7.7-3.39,3.36-2.42,6.57-2,10.09,0,5.59,3.18,11.47,5.72,18,6.15,3.71,4.63,9.81,7.36,11,14l-2.01,2.87Z"/>
  <path class="cls-24" d="m277.72,591.56c-3.52,3.77-8.11,4.3-10.77,7.73-.93,1.2-2.26.05-3-.65-7.89-7.14-13.71-16-19.89-24.55,4.72,1.46,9,3.22,11.6,7.75,1.66,2.9,3.73,5.48,8,3.46,1.83-.87,2.14,1.59,2.93,2.61,1.32,1.69,2,3.23,4.62,1.22,2.9-2.31,3.75,2.05,6.51,2.43Z"/>
  <path class="cls-24" d="m23.84,596.26c-1.21-13.8,5.67-25.36,10.36-37.53.45-1.16,1-2.78,2.73-2.24.94.31,1.74.96,2.23,1.82.66,1.36-.78,2.1-1.57,2.76-5.55,4.59-6.14,10.79-5.55,17.24.62,6.73,3.29,9.22,10.06,10,1.12.14,2.39-.17,3.19,1.4-1.6,1.06-3.27,2.09-4.84,3.23-2,1.46-3.57,1.07-5.1-.8s-2.89-4.64-5.41-3.52c-2.88,1.27-4.43,4.37-5,7.56-.2,1.99-.25,4-.16,6-2.87-1.55-.94-3.89-.94-5.92Z"/>
  <path class="cls-25" d="m452.68,411.38c.27-3.13.12-6-1.89-8.81-1.46-2-1.11-4.75-.91-7.23l1.86-2.96c-.77,4.57,1.25,8.62,3.15,12.36,3.5,6.89,2.39,13.93,1.49,20.89-1.09,8.4-1.41,8.36-8.48,3.32-.73-.65-1.6-1.14-2.54-1.43-4.1-.63-4.39-.81-4-1.28,2-2.23-.66-8,5.76-7,4.72.66,5.83-1.38,5.56-7.86Z"/>
  <path class="cls-24" d="m295.97,566.9c-6.6,8.46-11.47,9.2-16.45,3.5-2.75-3.16-2.42-6.41,1-8.89,1.87-1.37,3.79-2.67,5.69-4,1.34-.94,2.79-2.82,4.18-2.27,1.78.7,1.5,3.09,1.51,4.9.17,1.34.09,2.69-.24,4-1.53,3.68-.23,4.51,4.31,2.76Z"/>
  <path class="cls-24" d="m42.6,495.91c-2.73-1.44-3.63-3.41-4.62-5.34-2.42-4.69-3.9-9.91-7.94-13.68-1.35-1.27-1.86-3.07-.52-4.44,1.38-1.5,3.47-2.1,5.44-1.58,1.68.43,3.18,1,2.89,3.25-.34,2.71.14,4.59,3.69,4,1.9-.32,1.85,1.84,2,2.86.65,4.89.77,9.81-.94,14.93Z"/>
  <path class="cls-15" d="m287.84,381.38h-1.1c-.74-1.86-2.41-2.62-4-3.55-5.56-3.23-5.77-9.93,0-14,.33,6.37,2.68,11.95,5.1,17.55Z"/>
  <path class="cls-8" d="m405.48,212.57c-2.16,2.75-3.76,5.26-5.83,7.3s-4.93,2.81-7.13-.17c-1.49-2-2-3.81,1.59-4.41s7.27-1.71,11.37-2.72Z"/>
  <path class="cls-24" d="m105.71,199.12c-.66-.69-1-.89-1.09-1.17-1-2.14-5.17-3.48-3.58-5.67,2.32-3.16,6.69-1.86,10.28-1.76.47,0,1.15.71,1.31,1.22.23.77-.2,1.58-.96,1.81-.07.02-.15.04-.23.05-2.95.52-4.15,2.94-5.73,5.52Z"/>
  <path class="cls-16" d="m139.84,154.5l-2,3c-3-.45-6.49,3.12-9.11-1,1.22-.51,1.08-1.85,1.59-2.6,1.31-2,2.51-5.55,5.46-4.46s3.06,3.87-.24,5.83c2.3,1.11,2.55-2.29,4.3-.77Z"/>
  <path class="cls-5" d="m216.74,593.26c-3.44.31-6.88-.55-9.76-2.44-2.59-1.58-3.54-3.13-1.15-5.56,4.7-.43,10.7,3.96,10.91,8Z"/>
  <path class="cls-16" d="m461.84,593.22c-2.31.89,2.77,2.77-.44,3.47s-1.44-2-2.13-3.08c-1.45-2.21-1.46-6-6.17-4.59-2.38.69-3.38-1.4-1.4-3.61,5.49-.1,9.56,1.62,10.14,7.81Z"/>
  <path class="cls-35" d="m416.84,588.28c1.29,2.84,2.71,5.56,5.75,7,.91.42,2.23,1.23,1.91,2-1.49,3.68,1.55,6,2.27,9.06-2.37-2.21-4.36-4.79-5.91-7.64-1.74-3.37-3.14-8.1-7.15-10.36l3.13-.06Z"/>
  <path class="cls-34" d="m535.75,438.59c-.07,1.72.25,3.05-1.22,3.49s-2.12-.51-2.69-1.58c-.45-.88-.9-1.76-1.29-2.66-1.3-3,.65-6.16,2.45-6.64,3.19-.84,1.1,2.74,1.9,4.19.43,1.02.72,2.1.85,3.2Z"/>
  <path class="cls-19" d="m513.75,359.38c-3-5.19-8.26-8.57-11-14,5,1.78,8.31,5.76,11.88,9.37,1.82,1.88.48,3.29-.88,4.63Z"/>
  <path class="cls-34" d="m374.25,574.81c1.91-1,4.29,0,4.79-3.06.4-2.4,2.58-.68,3.59-.23,1.79.78.27,1.85-.3,2.72q-3.7,5.64-8.08.57Z"/>
  <path class="cls-28" d="m404.84,529.17c1.55-1.84,3.22-3.58,5-5.21,1.26-1.18,3.21-1.18,4.47,0,1.63,1.8-1.13,1.61-1.6,2.55-.69,1.11-.96,2.43-.77,3.73l-1.15.06c-1.31.53-2.62-.92-3.93,0-1.24.55-2.2.7-2.02-1.13Z"/>
  <path class="cls-39" d="m421.23,407.92c2.51.43,4-4.17,6.08-1.74,1.63,1.93.52,5.46-1.83,6.38-3.19,1.25-2.64-2.78-4.25-4.64Z"/>
  <path class="cls-40" d="m216.74,593.26c-2.82-3.77-6.18-6.83-10.91-8l2-1.92c4.49,1.89,8.17,5,12,7.87-.68,1.23-1.99,1.52-3.09,2.05Z"/>
  <path class="cls-8" d="m217.84,531.64c2.31,1.73,5.13,3.18,4.31,6.46-.32,1.29-2.22,1.61-3.48,1-3.89-1.89-.3-4.95-.83-7.46Z"/>
  <path class="cls-10" d="m255.77,239.56c-2.7-.8-3.37,1.62-4.54,3-1.37,1.65-2.32,3.67-3.73,5.27-.85,1-1.17,3.63-2.85,2.5-1.87-1.25.39-2.51,1.2-3.54,2.55-3.22,4.23-7.19,8-9.36l1.92,2.13Z"/>
  <path class="cls-34" d="m247.05,413.05c2-1,3.88-.74,4.73-2.53.57-1.18,1.47-2.68,2.94-1.82,2.3,1.34,0,3.2,0,4.83,0,1.87-1.39,1.91-2.82,1.37l-4.85-1.85Z"/>
  <path class="cls-39" d="m393.76,573.08c-2.09-.61-3-2.4-3.58-4.24-.4-1.23.4-2.55,1.75-2.2,1.76.46,4.16.84,4.38,3.11.01,1.56-1.04,2.93-2.55,3.33Z"/>
  <path class="cls-39" d="m446.39,578.77c3.74-.82,6.3-2.89,8.83-.28.75.76.77,2.2-.1,2.6-2.92,1.35-5.03-.99-8.73-2.32Z"/>
  <path class="cls-34" d="m346.84,383.26c2.2,1.06,4.15,2.59,5.71,4.48.55.6,1.25,1.35.62,2.08-.69.75-1.86.8-2.61.11-.02-.01-.03-.03-.05-.04-1.71-1.72-3.22-3.64-4.82-5.48-.18-.98.15-1.37,1.15-1.15Z"/>
  <path class="cls-37" d="m298.84,553.38c.15,1.68,1.83,3.71-1.29,4.59-3.31,1-3.64-1.69-4.65-3.58,1.59-2.4,3.73-1.77,5.94-1.01Z"/>
  <path class="cls-37" d="m58.89,232.44c.53-1.28-1.46-3,.49-3.92,1.13-.52,2.83-.93,3.78-.44,1.23.65.82,2.39.38,3.64-.6,1.71-1.86,1.57-3.25,1-.47-.17-.96-.28-1.45-.34l.05.06Z"/>
  <path class="cls-38" d="m426.76,606.26c3.41,3.28,6.89,6.52,5,12l-3-1c1.59-1.25,1.93-2.58.82-4.49s-2.49-4.06-2.82-6.51Z"/>
  <path class="cls-7" d="m212.84,229.53c-3.93,1.68-8.19,2.43-12.45,2.19,4-2,8.84-1.22,12.43-4.24.02.68.02,1.36.02,2.05Z"/>
  <path class="cls-39" d="m62.84,254.85c-.42-.3-.63-.38-.63-.46,0-2.12-1.63-4.39.48-6.31.49-.44,1.63-.63,1.72-.05.32,2.39-.24,4.81-1.57,6.82Z"/>
  <path class="cls-23" d="m423.78,555.25v1.07l-9-3.84c4.51-2,6.48,1.18,9,2.77Z"/>
  <path class="cls-46" d="m23.84,596.26c.45,2-.75,4.18,1,5.93.1,1.78.34,3.6-2.12,5.9.55-4.55-.73-8.23,1.12-11.83Z"/>
  <path class="cls-18" d="m351.63,529.08c0,2.85-.27,4.57-1.77,5.68-.55.41-1.13-.49-1.31-1.09-.71-2.52,1.58-2.63,3.08-4.59Z"/>
  <path class="cls-32" d="m54.54,506.65c1.05.17,1.23.92,1.2,1.8.1.89-.54,1.7-1.44,1.8-.12.01-.25.01-.37,0-.87,0-1.81-.23-1.66-1.25.27-1.14,1.14-2.04,2.27-2.35Z"/>
  <path class="cls-31" d="m209.78,146.51l1-1c2-1.68,4-3.35,6-5v1c-2.1,1.87-2.82,5.87-7,5Z"/>
  <path class="cls-34" d="m406.84,530.3c1.32-2.16,2.62-1.48,3.93,0,.25,1.06.5,2.12.8,3.37-2.32-.42-2.96-2.7-4.73-3.37Z"/>
  <path class="cls-32" d="m522.84,380.79c2.54-.55,4,.06,4.71,2,.11.29-.34,1.13-.57,1.15-2.14.14-2.59-1.81-4.14-3.15Z"/>
  <path class="cls-30" d="m234.96,556.92c-1.37-.17-1.11-1.44-1.41-2.29-.22-.42-.06-.93.35-1.15.2-.1.43-.13.65-.06,1,.13,1.95.62,2,1.83-.01.93-.71,1.45-1.59,1.67Z"/>
  <path class="cls-36" d="m192.84,569.16c-1.84,1.26,0,3.94-2,5.15-.31-1.69-.63-3.37-.94-5,.94-.29,1.94-1.56,2.94-.15Z"/>
  <path class="cls-32" d="m188.95,512.61c.11-.86.56-1.7,1.38-1.71s1.29.83,1.36,1.7c.15.7-.29,1.38-.99,1.54-.13.03-.26.04-.38.02-.7.07-1.32-.43-1.4-1.13-.01-.14,0-.28.03-.42Z"/>
  <path class="cls-6" d="m198.64,502.15c-.22.91-1.07,1.52-2,1.44-.85,0-.75-.86-.7-1.45.1-1.07.54-1.86,1.8-1.58.68.15.99.7.9,1.59Z"/>
  <path class="cls-2" d="m353.75,525.14c-2.31-1.66-2.21-2.9-1.11-4.55,1.63,1.11,1,2.53,1.11,4.55Z"/>
  <path class="cls-9" d="m222.98,394.43c1.18-2.35,2.27-3.09,4.16-2.93-.51,2.04-1.99,2.24-4.16,2.93Z"/>
  <path class="cls-42" d="m298.84,553.38c-2.05-.09-4.12-.24-5.94,1l-1-2,7,.06-.06.94Z"/>
  <path class="cls-17" d="m346.84,383.26l-1.11,1.12c-1.21-.79-2.39-1.6-2.73-3.3,1.6-.09,3.1.76,3.84,2.18Z"/>
  <path class="cls-18" d="m265.84,571.05c-.85-.17-1.54-.6-1.63-1.49-.06-.59.49-.71,1-.53.7.27,1.69.46,1.94,1s-.58.96-1.31,1.02Z"/>
  <path class="cls-41" d="m470.1,556.23c-.4-.57-.72-1.19-.92-1.86-.07-.81.66-1,1.3-1s1.18.53.94,1.21c-.17.55-.7.92-1.32,1.65Z"/>
  <path class="cls-41" d="m15.44,221.88c-1-.42-1.43-.84-1.31-1.57s.53-1.23,1.23-1.13c.23,0,.48.78.48,1.2-.06.52-.2,1.02-.4,1.5Z"/>
  <path class="cls-18" d="m388.68,586.38c-.69-.15-1.48-.19-1.11-1.1.26-.38.68-.64,1.14-.69.61-.12,1.2.27,1.32.88.01.06.02.11.02.17-.03.81-.89.57-1.37.74Z"/>
  <path class="cls-2" d="m186.89,462.26c-1.12.16-2.39-.09-3.14,1.12l-1.18-1.41c1.52-1.2,2.95-.84,4.32.29Z"/>
  <path class="cls-43" d="m14.18,390.6c-2.41-2.61-3.62-6.1-3.34-9.64.36-4.78-1.09-8.91-3-13.28-3.64-8.17-2.17-16.89-.88-25.43.22-1.42,1-2,2.47-1.5,5.97,2.11,11.33,5.67,15.59,10.36,1.13,1.24.91,2.8.93,4.28,0,5.44,1.3,10.29,4.93,14.7,4.94,6,4.43,11.09-.93,16.76-1.93,2-3.07,4.81-5.66,6.23-.84.46-1.74,1.42-2.71.77s-.55-1.79-.38-2.76c.38-2.14,1.9-4.33-1.31-5.9-5.41-2.62-4.86,1.9-5.71,5.41Z"/>
  <path class="cls-25" d="m5.84,295.69v-19.21c0-1-.46-2.68,1.36-2.58,1.35-.1,2.53.92,2.63,2.27,0,.07,0,.14,0,.21-.07,6,2.86,10,7.52,13.66,2.57,2,2.57,6.65,6,9,1,.68-1.4,2.86-2.95,3.85-4.31-7.14-6.85-8.51-14.57-7.2Z"/>
  <path class="cls-7" d="m14.55,325.67c.79.58,1.52,1.26,2.16,2,1,1.56,4.26,2.19,2.15,5.13-1.87,2.61-4.13,3-6.95,1.73-1.05-.47-2.47-.5-2.63-1.89s1.35-1.1,2.12-1.56c1.91-1.12,1.87-3.39,3.15-5.41Z"/>
  <path class="cls-26" d="m186.31,355.83c3.53-1.93,7-1.38,10.42-1.44,1.33,0,2.38.62,2.28,2s-1.51,1-2.33.92c-3.46-.41-6.91-.93-10.37-1.48Z"/>
  <path class="cls-11" d="m209.23,361.09c1.19-1.94.68-4.83,3.08-5.18,1.38-.2,3.18,2.19,2.71,3.55-.82,2.37-3.26,2.01-5.79,1.63Z"/>
  <path class="cls-35" d="m21.22,424.38c-2.79-.6-4.65,1.85-6.11-.83-.21-.77,0-1.6.56-2.18,2.37-1.07,3.35.87,5.55,3.01Z"/>
  <path class="cls-4" d="m175.61,577.63c1.97.23,3.73,1.33,4.8,3q-4.29.75-4.8-3Z"/>
  <path class="cls-40" d="m184.54,340.11c-2.38.51-4.84-.32-6.43-2.16,2.81-1.11,4.66-.66,6.43,2.16Z"/>
  <path class="cls-42" d="m198.84,241.88c2.3-.26,3.78-1.67,5.55-.7.57.32.43,1.35-.17,1.68-1.69.95-3.32.72-5.38-.98Z"/>
  <path class="cls-28" d="m170.84,165.38c-.92,1.62-1,3.47-1,5.47-3.8-3.58-3.79-3.64,1.09-5.43l-.09-.04Z"/>
  <path class="cls-45" d="m173.32,292.38c.33,1.78-.27,3.6-1.58,4.84-1.49-2.19-1.05-3.52,1.58-4.84Z"/>
  <path class="cls-38" d="m145.06,325.59c2.72.25,2.84,2.2,3.87,4.21-2.44-.77-3.49-1.88-3.87-4.21Z"/>
  <path class="cls-40" d="m136.05,178.6c1.64-.11,2.3,0,2.3.85s-.75.92-1.37.92-1.43.25-1.35-.73c.03-.38.18-.75.42-1.04Z"/>
  <path class="cls-38" d="m38.75,442.26l-4,.45-.15-1.17,4.37-.24-.22.96Z"/>
  <path class="cls-29" d="m165.77,409.38v-1c1.51-.75,3-1.24,4.53,1h-4.53Z"/>
  <path class="cls-1" d="m34.39,402.44l1,.54c-.2.34-.39.93-.61.94-.44,0-.85-.2-1.13-.53-.31-.49.1-.78.74-.95Z"/>
  <path class="cls-33" d="m192.06,249.54c-.32.24-.68.42-1.07.52-.54,0-.95-.4-.66-.91.27-.35.68-.58,1.13-.62.43-.03.98.16.6,1.01Z"/>
  <path class="cls-27" d="m176.1,233.47l1,1.13c-.32.24-.67.72-.94.68-.41-.11-.75-.41-.91-.81-.04-.21.49-.59.85-1Z"/>
  <path class="cls-44" d="m455.75,368.95c-1.85-.84-3.79.6-4.41-2.09-.67-2.93,1.44-4.23,2.62-6s2.63-.49,3.89.25c.71.42,1.37.93,2.1,1.32,3.08,1.63,6.45,4.52,5.94,7.3-.63,3.41-5.4,4.48-8.56,6-2,1-3.59-1.18-3.32-3.51.12-1.07,1.04-2.02,1.74-3.27Z"/>
  <path class="cls-26" d="m487.84,358.38c1.15-1.55,2.71-2.86,4.54-1.78,2.69,1.59,1,4.43,1.27,6.71-3.36-.29-3.56,3.41-6,4.73-2.32-3.32.19-6.5.19-9.66Z"/>
  <path class="cls-34" d="m465.1,408.49h28.33v.5h-28.53c.06-.17.13-.34.2-.5Z"/>
  <path class="cls-7" d="m367.84,449.16c-.31,1.07.48,3.08-1.67,2.66-1.43-.28-3.67-.63-3.6-2.54.06-1.69,1.23-3.64,3.34-3.54,1.93.09,1.93,1.91,1.93,3.42Z"/>
  <path class="cls-28" d="m494.52,407.31c-2.06-.17-3.71-1.78-3.92-3.84-.25-1.44,1.33-.95,2.2-1.12,2.6-.48,3,1.45,3.49,3.22.4,1.45-.58,1.67-1.77,1.74Z"/>
  <path class="cls-4" d="m350.25,493.16c2.58,1.57,5,1.18,4.82,3.6-.47,1.02-1.44,1.72-2.55,1.84-2.6-.47-1.27-2.69-2.27-5.44Z"/>
  <path class="cls-3" d="m400.6,494.22c-3-.83-3.92-2.79-6-4.7,4.03-.14,4.71,2.03,6,4.7Z"/>
  <path class="cls-12" d="m442.43,416.74c-.59.21-1,.53-1.32.44s-.62-.56-.92-.87c.34-.21.72-.64,1-.58s.65.53,1.24,1.01Z"/>
  <path class="cls-4" d="m29.96,196.85c-3.12,3.92-6.17,5.64-10.72,4.06,2.1-4.83,5.95-4.53,10.72-4.06Z"/>
  <path class="cls-38" d="m103.25,146.77c-1.22,1.08-2.31,2.3-4,.9-.25-.54-.2-1.16.11-1.66,1.37-.99,2.67-.76,3.89.76Z"/>
  <path class="cls-31" d="m217.89,111.98l-7.28-3.6c2.6-.18,5.17-.29,7.28,3.6Z"/>
  <path class="cls-10" d="m37.84,183.15c.75,2,1.51,4.1,2.26,6.16-2.14-1.52-3.45-3.33-2.26-6.16Z"/>
  <path class="cls-40" d="m108.18,141.08c1.37.34,2.48,1.32,3,2.63-.21.26-.37.65-.58.67-2.31.26-2.97-.86-2.42-3.3Z"/>
  <path class="cls-36" d="m96.55,151.38c-.88,1.89-1.57,2.76-2.89,2.61-.25,0-.66-.77-.6-1.1.36-1.9,1.78-1.29,3.49-1.51Z"/>
  <path class="cls-4" d="m109.11,133.04c1.25.34,2.09,1.51,2,2.8-.31.31-.74.46-1.17.43-1.46-.53-1.2-1.71-.83-3.23Z"/>
  <path class="cls-38" d="m290.58,474.66c-2.67,1.36-4.21-.44-7-.48,3.37-3.08,4.74-.33,7,.48Z"/>
  <path class="cls-35" d="m388.9,610.84c2.18-.9,4.67-.54,6.51.94-2.82,2.97-4.11.07-6.51-.94Z"/>
  <path class="cls-30" d="m201.94,143.91c-1.33.54-2.53,1.72-3.6.23-.15-.22-.22-.76-.09-.88,1.52-1.4,2.47.81,3.69.65Z"/>
  <path id="egg-solid" class="cls-13" d="m209.38,194.68c-7.99,0-14.47-7.69-14.47-15.68,0-8.44,4.82-20.5,14.47-20.5s14.47,12.06,14.47,20.5c0,7.99-6.48,15.68-14.47,15.68Zm-2.8-27.29c.5-.45.54-1.21.09-1.7-.45-.5-1.21-.54-1.7-.09,0,0-.01,0-.02.01-1.81,1.77-3.16,3.95-3.95,6.35-.81,2.26-1.24,4.64-1.27,7.04,0,.67.54,1.21,1.21,1.21s1.21-.54,1.21-1.21h0c.03-2.13.42-4.24,1.14-6.24.65-2.03,1.78-3.87,3.29-5.37Z"/>
  <path id="jar-wheat-solid" class="cls-13" d="m286.87,355.21c0-1.3,1.05-2.35,2.34-2.35,0,0,0,0,0,0h14.1c1.3,0,2.35,1.05,2.35,2.35s-1.05,2.35-2.35,2.35h-14.1c-1.3,0-2.35-1.05-2.35-2.34,0,0,0,0,0,0Zm-2.35,9.4c0-2.6,2.1-4.7,4.7-4.7h14.1c2.6,0,4.7,2.11,4.7,4.7v21.15c0,2.59-2.1,4.7-4.7,4.7h-14.1c-2.59,0-4.7-2.1-4.7-4.7v-21.15Zm8.22,0h-3.1c-.23,0-.43.19-.43.43,0,2.36,1.91,4.27,4.27,4.27,0,0,0,0,0,0h5.55c2.36,0,4.27-1.91,4.27-4.27h0c0-.24-.19-.43-.43-.43h-3.1c-1.35,0-2.63.58-3.52,1.59-.89-1.01-2.18-1.59-3.53-1.59Zm3.53,8.64c-.89-1.01-2.17-1.59-3.52-1.59h-3.1c-.23,0-.43.19-.43.43,0,2.36,1.91,4.27,4.26,4.27,0,0,0,0,0,0h5.55c2.36,0,4.27-1.91,4.27-4.27h0c0-.24-.19-.43-.43-.43h-3.1c-1.35,0-2.63.58-3.52,1.59Zm-3.52,5.46h-3.1c-.23,0-.43.19-.43.43,0,2.36,1.91,4.27,4.26,4.27,0,0,0,0,0,0h1.6v2.35c.02.65.56,1.16,1.21,1.14.63-.02,1.13-.52,1.14-1.14v-2.35h1.6c2.36,0,4.27-1.91,4.27-4.27h0c0-.24-.19-.43-.43-.43h-3.1c-1.35,0-2.63.58-3.52,1.59-.89-1.01-2.18-1.6-3.53-1.59h0Z"/>
  <path id="seedling-solid" class="cls-13" d="m257.91,114.21c0,8.54-6.32,15.76-14.78,16.9-.53-3.96-2.26-7.66-4.97-10.6,3.01-5.39,8.71-8.73,14.88-8.73h2.44c1.34,0,2.43,1.09,2.44,2.43,0,0,0,0,0,0Zm-38.98,4.87c0-1.34,1.09-2.43,2.43-2.44,0,0,0,0,0,0h2.44c9.42,0,17.05,7.63,17.05,17.05v9.74c0,1.35-1.09,2.44-2.44,2.44s-2.44-1.09-2.44-2.44v-7.31c-9.42,0-17.05-7.64-17.05-17.05Z"/>
  <path id="carrot-solid" class="cls-13" d="m235.46,248.35c-1.22,1.55-1.92,3.43-2.01,5.4,0,3.27,1.15,4.53,3.01,6.54,1.86,2.02,3.01,3.27,6.02,3.27,1.86-.12,3.62-.9,4.97-2.18.3-.28.46-.68.45-1.09.01-.41-.15-.8-.45-1.08-1.54-1.36-3.51-2.14-5.57-2.19-2.41,0-3.01.65-3.01.65,0,0,.6-.65.6-3.27-.03-2.18-.73-4.29-2.02-6.05-.23-.31-.6-.5-.99-.49-.39,0-.76.18-1,.49Zm-7.68,10.63c-3.03.03-5.87,1.49-7.65,3.94l4.55,4.95c.47.53.47,1.32,0,1.85-.42.47-1.14.51-1.61.09-.03-.03-.06-.06-.09-.09l-4.16-4.53h0s-9.28,21.75-9.28,21.75c-.32.75-.18,1.61.36,2.22.51.58,1.35.74,2.04.39l10.13-5.1-3.92-4.26c-.47-.53-.47-1.32,0-1.85.42-.47,1.14-.51,1.61-.09.03.03.06.06.09.09l4.54,4.93,7.54-3.79c3.59-1.92,5.8-5.68,5.73-9.75,0-5.93-4.43-10.74-9.9-10.74Z"/>
  <g id="meat">
    <path id="Path_36" data-name="Path 36" class="cls-22" d="m455.98,328.85h42.81v42.81h-42.81v-42.81Z"/>
    <path id="Path_37" data-name="Path 37" class="cls-21" d="m480.27,343.8l3.51-3.51c-1.39-1.39-1.39-3.65,0-5.04s3.65-1.39,5.04,0c.67.67,1.04,1.58,1.04,2.52,1.97,0,3.57,1.6,3.57,3.57,0,1.97-1.6,3.57-3.57,3.57-.95,0-1.85-.38-2.52-1.04l-3.25,3.25"/>
    <path id="Path_38" data-name="Path 38" class="cls-14" d="m466.51,362.02c4.87,4.88,10.52,7.14,12.61,5.05s-.17-7.74-5.04-12.61c-4.88-4.87-10.52-7.14-12.61-5.05s.17,7.74,5.04,12.61Z"/>
    <path id="Path_39" data-name="Path 39" class="cls-20" d="m469.35,357.39l1.78,1.78"/>
    <path id="Path_40" data-name="Path 40" class="cls-21" d="m479.12,367.07c6.97-6.97,8.66-16.57,3.78-21.44s-14.48-3.18-21.44,3.78"/>
  </g>
  <path id="tomato" class="cls-13" d="m232.95,76.19c-.76-12.2-7.59-13.99-13.1-13.99h0c-1.39,0-2.7.11-3.8.2-.01-.6.03-1.21.12-1.81,0,0,0-.02,0-.03,0,0,0,0,0-.01,0-.2-.42-.37-.93-.37s-.93.17-.93.37c-.14.66-.33,1.32-.57,1.95-7.26.04-16.84,1.1-18.3,13.27-1.06,8.83,8.28,16.82,18.79,16.82s19.28-7.54,18.73-16.41m-16.51-12.07c.26-.02.52-.04.79-.06-.33.12-.65.25-.95.38-.02-.09-.04-.2-.06-.3l.21-.02m-3.49.14c-.08.16-.16.31-.24.45-.19-.16-.38-.3-.59-.43.27,0,.55-.01.82-.02m14.16,21.59c-3.48,3.28-8.1,5.08-12.89,5.02-5,0-9.79-1.96-13.34-5.49-2.7-2.78-3.97-6.13-3.57-9.41.74-6.16,3.69-9.11,7.48-10.5,2.39-.35,4.82-.17,7.13.53,0,0-7.86-1.8-10.94,7.52,3.88-5.58,10.55-3.94,12.31-5.99,0,3.98,3.13,2.05,4.71,3.84,2.03,2.3,2.78,6.43,5.12,7.24-2.3-4.57,1.47-4.39-3.84-10.52,2.79,1.6,4.24-.02,8.06,1.43-1.8-2.84-5.2-4.24-8.49-3.5,0,0,2.13-1.79,4.38-1.74,3.81.82,7.31,3.58,7.84,12.04.15,3.61-1.3,7.11-3.96,9.55"/>
</svg>