<?xml version="1.0" encoding="utf-8"?>
<!-- Generator: Adobe Illustrator 25.4.1, SVG Export Plug-In . SVG Version: 6.00 Build 0)  -->
<svg version="1.1" id="Lag_1" xmlns="http://www.w3.org/2000/svg" xmlns:xlink="http://www.w3.org/1999/xlink" x="0px" y="0px"
	 viewBox="0 0 119 119" style="enable-background:new 0 0 119 119;" xml:space="preserve">
<style type="text/css">
	.st0{fill:#8AA08A;}
	.st1{fill:#EBEBEB;}
</style>
<circle id="Ellipse_1" class="st0" cx="59.5" cy="59.5" r="59"/>
<g id="bread" transform="matrix(0.978, -0.208, 0.208, 0.978, 19.678, 34.744)">
	<g id="Path_15" transform="translate(0 0)">
		<path class="st1" d="M57.7,63.1c-1.6,0-3.6-1-6-2.9c-4-3.1-10.8-9.5-20.2-18.9L27,36.9C17.2,27,11.3,21,9.3,18.9
			c-2.8-3-4.9-5.6-6.3-7.8C1.6,9.1,0.9,7.4,0.9,6.2c0-0.9,0.3-1.6,0.9-2.3C2.6,3.1,3.6,2.5,4.9,2c1.3-0.5,2.8-0.8,4.6-0.9
			c0.2,0,0.4,0,0.6,0c1.7,0,3.7,0.3,5.9,1c2.4,0.7,5,1.9,7.7,3.4c-0.2,0.2-0.3,0.3-0.3,0.3l0,0l0,0c-1,1.2-2.3,2.3-3.6,3.2
			c-1.4,1-2.6,1.7-3.8,2.1l-0.8,0.3l0.7,0.5c0.5,0.4,1.3,0.7,2.3,0.8c0.2,0,0.4,0,0.6,0c0.8,0,1.7-0.1,2.6-0.3
			c1.1-0.3,2.3-0.7,3.4-1.4c1.2-0.7,2.2-1.5,3-2.4l0.1-0.1V8.5c0,0,0.1-0.1,0.2-0.2c3.6,2.4,7.3,5.5,11.3,9.1
			c-0.1,0.2-0.2,0.3-0.2,0.3l0,0l0,0c-1.1,1.2-2.3,2.3-3.7,3.2c-1.4,1-2.6,1.7-3.8,2.1l-0.8,0.3l0.7,0.5c0.5,0.4,1.3,0.7,2.3,0.8
			c0.2,0,0.4,0,0.6,0c0.8,0,1.7-0.1,2.5-0.3c1.1-0.3,2.2-0.7,3.4-1.4c1-0.6,1.9-1.2,2.7-2c4.4,4.5,8.2,8.8,11.3,13
			c-2.3,2.3-4.6,4-6.9,4.8L46.7,39l0.6,0.6c0.6,0.5,1.5,0.8,2.6,0.8c0,0,0,0,0,0c0.6,0,1.2-0.1,1.9-0.2c1.9-0.3,3.7-1.1,5.3-2.2
			c1.9,3,3.3,5.9,4.2,8.6c1,2.8,1.5,5.2,1.4,7.2c0,2-0.3,3.7-0.8,5c-0.5,1.3-1.2,2.4-2.1,3.3l0,0l0,0C59.3,62.7,58.6,63.1,57.7,63.1
			z"/>
		<path class="st0" d="M57.7,62.6c0.8,0,1.4-0.3,1.9-0.8l0,0c0.8-0.8,1.5-1.8,1.9-3.1c0.5-1.3,0.7-2.9,0.8-4.9c0-1.9-0.4-4.3-1.4-7
			c-0.9-2.5-2.2-5.2-3.9-8c-1.6,1-3.3,1.6-5,2c-0.8,0.1-1.4,0.2-2,0.2c-1.3,0-2.3-0.3-2.9-1l-1.2-1.1l1.5-0.6
			c2.1-0.8,4.3-2.2,6.4-4.4c-2.9-4-6.5-8.1-10.6-12.3c-0.7,0.6-1.5,1.2-2.4,1.7c-1.2,0.7-2.4,1.2-3.5,1.4c-1.1,0.3-2.2,0.4-3.3,0.3
			c-1.1-0.1-2-0.4-2.6-0.9l-1.3-1.1l1.6-0.6c1.1-0.4,2.3-1.1,3.6-2c1.3-0.9,2.5-2,3.5-3.1c-3.6-3.4-7.2-6.2-10.5-8.5l-0.1,0.1
			c-0.9,1-2,1.8-3.2,2.5c-1.2,0.7-2.4,1.2-3.5,1.5c-0.9,0.2-1.8,0.4-2.7,0.4c-0.2,0-0.4,0-0.6,0c-1.1-0.1-2-0.4-2.6-0.9l-1.3-1.1
			l1.6-0.6c1.1-0.4,2.3-1.1,3.7-2C20.8,7.8,22,6.8,23,5.7c-2.5-1.4-4.9-2.4-7.1-3.1c-2.5-0.8-4.6-1.1-6.3-1C7.8,1.7,6.3,2,5.1,2.5
			C3.9,2.9,2.9,3.5,2.1,4.3C1.6,4.9,1.4,5.5,1.4,6.2l0,0c0.1,1.6,1.5,5,8.3,12.4c2,2.1,7.9,8.1,17.7,17.9l4.4,4.4
			c9.3,9.4,16.1,15.7,20.2,18.9C54.3,61.6,56.2,62.6,57.7,62.6L57.7,62.6 M57.7,63.6c-1.7,0-3.8-1-6.3-3c-4.1-3.2-10.8-9.5-20.2-19
			l-4.4-4.4c-9.9-9.9-15.8-15.9-17.8-17.9c-5.6-6.1-8.5-10.4-8.5-13c0-1,0.3-1.9,1-2.6c0.9-0.9,1.9-1.5,3.3-2.1s2.9-0.8,4.8-0.9
			c1.9-0.1,4.1,0.2,6.7,1s5.4,2,8.3,3.7c-0.3,0.5-0.6,0.7-0.7,0.9c-1.1,1.2-2.3,2.3-3.7,3.3c-1.4,1-2.7,1.7-3.9,2.2
			c0.5,0.4,1.1,0.6,2.1,0.6c0.9,0.1,1.9,0,3-0.3s2.2-0.7,3.3-1.4c1.1-0.6,2.1-1.4,2.9-2.3c0,0,0.2-0.3,0.6-0.8
			c3.8,2.5,7.8,5.8,12.1,9.8c0,0-0.1,0.1-0.2,0.3c-0.1,0.2-0.2,0.3-0.3,0.4c-1.1,1.2-2.4,2.3-3.7,3.3c-1.4,1-2.7,1.7-3.9,2.2
			c0.5,0.4,1.1,0.6,2.1,0.6c0.9,0.1,1.9,0,2.9-0.3c1-0.3,2.1-0.7,3.3-1.4c1.1-0.6,2.1-1.4,2.9-2.2l0.3,0.3C48,25.2,51.9,29.7,55,34
			c-2.4,2.6-4.9,4.3-7.4,5.2c0.7,0.7,2.1,0.9,4.1,0.5c2-0.4,3.9-1.2,5.5-2.4c2,3.2,3.6,6.3,4.6,9.1c1,2.8,1.5,5.3,1.4,7.3
			c0,2-0.3,3.8-0.8,5.2c-0.5,1.4-1.2,2.6-2.2,3.5C59.6,63.2,58.7,63.6,57.7,63.6z"/>
	</g>
</g>
</svg>
