<?xml version="1.0" encoding="UTF-8"?>
<svg id="Lag_1" data-name="Lag 1" xmlns="http://www.w3.org/2000/svg" viewBox="0 0 106.18 52.32">
  <defs>
    <style>
      .cls-1 {
        fill: #020202;
      }
    </style>
  </defs>
  <path class="cls-1" d="m33.36,22.52c-.37.14-.57.3-.86.34-.55.07-1.07.21-1.6.5-.55.3-1.22.46-1.89.56-1.38.21-2.77.29-4.15.46-1.14.14-2.25.45-3.4.5-.35.01-.76.05-1.04.23-.54.34-1.17.24-1.71.5-.67.32-1.45.3-2.06.74-.35.25-.77.18-1.16.43-.87.55-1.38,1.36-1.78,2.21-.64,1.32-1.19,2.7-1.54,4.14-.16.63-.44,1.23-.53,1.89-.1.73-.49,1.39-.77,2.07-.67,1.66-1.02,3.4-1.48,5.11-.26.98-.33,1.98-.65,2.95-.31.92-.63,1.84-.81,2.81-.08.45-.39.86-.57,1.29-.25.62-.34,1.27-.46,1.9-.09.48-.29.82-.57,1.17-.31-.07-.22-.33-.22-.52.02-2.14.2-4.28.36-6.41.09-1.21.34-2.39.42-3.6.05-.72.35-1.44.42-2.18.1-1.01.57-1.93.67-2.95.05-.55.33-1.07.44-1.62.33-1.68,1.08-3.25,1.45-4.93.04-.17.11-.34.14-.52.02-.18.13-.38-.08-.49-.16-.08-.37-.09-.53.01-1.09.72-2.36,1.15-3.37,2.01-.29.25-.65.3-.99.37-.26.06-.53.04-.74-.23-.2-.27-.5-.46-.71-.72-.56-.68-.68-1.46.11-2.06.42-.32.92-.54,1.35-.85.68-.51,1.49-.72,2.25-1.03,1.15-.48,2.27-1.04,3.54-1.16.21-.02.33-.15.43-.31.62-1,1.17-2.04,1.72-3.08.77-1.46,1.48-2.97,2.33-4.39.44-.74.82-1.52,1.25-2.26.86-1.47,1.81-2.86,2.72-4.29.58-.9,1.05-1.88,1.74-2.71-.37-.26-.77-.18-1.14-.09-.86.22-1.75.32-2.59.66-.3.12-.66.06-.98.13-1.28.24-2.55.62-3.73,1.11-1.36.55-2.81.92-4.06,1.76-.43.28-.99.33-1.44.63-1.56,1.04-2.82,2.27-3.22,4.22-.17.84-.75,1.5-1.42,2.04-.27.22-.57.23-.83-.01-.46-.45-.92-.9-1.36-1.38-.51-.55-.2-1.19,0-1.69.35-.87.69-1.75,1.29-2.53.48-.62,1.08-1.07,1.65-1.53,1.27-1.03,2.7-1.82,4.15-2.59,1.07-.57,2.26-.89,3.29-1.53.85-.02,1.57-.5,2.34-.75.92-.31,1.93-.39,2.79-.89.03-.01.06-.04.08-.04,1.07.26,1.98-.34,2.96-.58.87-.22,1.73-.44,2.62-.55.27-.04.55-.25.78-.4.63-.39,1.28-.48,1.97-.45.44.01.83-.08,1.22-.28.24-.12.5-.35.73-.32,1.21.14,2.2-.51,3.28-.81.06-.02.12-.06.17-.05,1.03.16,1.98-.22,2.95-.41.61-.13,1.24-.26,1.85-.33.81-.09,1.56-.43,2.4-.42.83.01,1.67-.23,2.51-.31.93-.09,1.88-.05,2.81-.22.53-.09,1.07-.01,1.61-.2.52-.18,1.07-.16,1.62-.17.95-.02,1.89-.12,2.84-.16.76-.03,1.52-.08,2.24.3.26.14.59.12.86-.13.08-.08.3-.12.4.05s.03.36,0,.53c-.02.12-.18.12-.31.13-.32.02-.58-.14-.84-.24-.19.15-.12.36-.17.59-.48-.16-.9-.24-1.38-.06-.33.12-.78.17-1.08.03-.58-.27-1.07,0-1.55.16-.85.26-1.74.43-2.57.71-.89.3-1.75.23-2.62.32-.28.03-.55.12-.76.27-.41.3-.81.37-1.33.32-.79-.09-1.57.16-2.29.43-.34.13-.66.22-1.02.28-1.06.18-2.02.73-3.12.72-.59.51-1.45.18-2.07.67-.17.13-.45.19-.67.22-.86.11-1.65.45-2.48.67-.56.15-1.15.26-1.72.46-.61.21-1.24.44-1.87.53-.43.06-.39.27-.39.55,0,.45.26.81.48,1.14.47.69.4,1.23-.03,1.93-.5.8-.98,1.62-1.41,2.46-.26.51-.63.94-.93,1.41-1.08,1.64-1.86,3.44-2.91,5.09-.67,1.06-1.11,2.21-1.64,3.34-.05.1-.26.19-.07.37.15.14.26.13.47.06.54-.17,1.04-.5,1.65-.42.2.02.46-.07.51.24.06.33-.22.29-.4.36-.04.01-.06.09-.09.14.07.2.24.14.38.14,1.2-.04,2.37-.27,3.54-.56.84-.21,1.68-.36,2.53-.53.48-.1.96-.21,1.42-.32,0-.24-.12-.26-.24-.24-.83.13-1.69-.08-2.51.36-.38.21-.96.06-1.46.05-.07,0-.17-.09-.19-.16-.04-.14.05-.21.19-.24.35-.08.68-.24,1.06-.2.58.05,1.12-.24,1.71-.25.51,0,1.03-.19,1.52.1.15.09.3.03.44-.03.17-.08.34-.13.53-.12.44.01.78.34,1.15.43.3.07.72-.22,1.12-.14.13.02.2.09.26.21.1.21.34.17.49.12.31-.11,0-.28,0-.43,0-.23.06-.39.37-.38.76,0,1.39.26,1.96.92v.02Z"/>
  <path class="cls-1" d="m55.48.44c-.03-.21.08-.33.17-.35.57-.13,1.16-.12,1.72-.04,1.43.19,1.78.33,2.42.81-.29,0-.51,0-.72,0-.25.01-.46-.08-.69-.15-.54-.18-1.11-.25-1.69-.2-.41.04-.83.04-1.21-.07h0Z"/>
  <path class="cls-1" d="m53.32,1.09c-.28-.24-.41-.52-.72-.63C53.19.07,53.81,0,54.45.02c.15,0,.32-.01.36.18.04.24-.09.41-.29.51-.07.04-.21.05-.26,0-.47-.37-.67.01-.94.36h0Z"/>
  <path class="cls-1" d="m20.6,23.35c-.08,0-.21,0-.31-.05-.06-.03-.11-.14-.13-.21-.02-.09.01-.2.11-.22.53-.08,1.06-.15,1.59-.22.04,0,.14.06.14.1,0,.08-.01.21-.07.25-.39.24-.83.32-1.32.35h0Z"/>
  <path class="cls-1" d="m105.95,31.9c-.23-.04-.39-.04-.54.29-.97,2.17-2.33,4.04-4.42,5.3-1.3.78-2.67,1.17-4.19,1.05-.3-.02-.46-.11-.43-.43.01-.18,0-.37,0-.55-.06-1.05.19-2.14-.34-3.15-.04-.07-.02-.18,0-.27.05-.5-.13-.94-.29-1.39-.09-.25-.2-.5-.26-.76-.21-.98-.76-1.76-1.48-2.4-1-.88-2.32-1.1-3.57-1.34-1.23-.24-2.17.52-2.9,1.37-.88,1.03-1.7,2.12-2.6,3.14-.58.65-1.06,1.41-1.3,2.31-.26.97-.7,1.91-1.35,2.68-.62.74-1.14,1.55-1.69,2.32-1,1.39-2.13,2.64-3.36,3.82-.56.53-1.25.8-1.97,1.02-.33.1-.68.08-1.01,0-.39-.1-.51-.51-.31-.87.24-.44.44-.88.53-1.41.11-.63.15-1.28.47-1.9.22-.43.34-.95.61-1.36.31-.47.27-1.05.56-1.49.5-.76.77-1.6.9-2.49.06-.45.31-.83.33-1.31.08-1.97-.76-3.51-2.2-4.74-1.01-.86-2.35-.89-3.33-.12-1.54,1.21-2.92,2.59-4.16,4.1-.29.36-.42.81-.74,1.11-.63.59-.99,1.33-1.38,2.09-.29.57-.63,1.14-1.07,1.58-.22-.1-.2-.27-.13-.33.27-.24.21-.59.34-.84.25-.49.05-1.02.31-1.49.24-.44.34-.95.36-1.47,0-.23-.02-.51.2-.67.34-.23.26-.48.1-.77-.28-.52-.49-1.07-.63-1.65-.08-.35-.27-.74-.63-.84-.5-.13-.53-.43-.48-.81.05-.35-.05-.56-.38-.73-.23-.12-.45-.32-.62-.53-.19-.24-.44-.25-.66-.19-1.53.44-2.93,1.07-3.63,2.64-.07.17-.12.35-.36.3-.31-.07-.43.1-.51.37-.12.39-.42.71-.76.87-.24.12-.35.32-.36.46-.03.66-.52,1.06-.85,1.55-.15.23-.29.46-.36.71-.05.16-.05.32-.26.28-.13-.03-.14-.18-.14-.3,0-.71,0-1.41-.03-2.12-.03-1.03-.36-1.89-1.35-2.4-.18-.09-.34-.27-.46-.45-.4-.59-.97-.68-1.61-.61-.65.08-1.01.53-.68,1.05.33.51.23.96.08,1.43-.39,1.24-.65,2.54-1.31,3.66-1.03,1.74-1.97,3.53-3.22,5.13-1.09,1.39-2,2.92-3.44,4.03-.6.46-1.14,1.02-1.75,1.46-.77.55-1.61,1.04-2.64.93-.6-.06-.8-.17-.85-.75-.08-1.01-.17-2.03.15-3.01.28-.87.6-1.73,1.01-2.55.6-1.19,1.16-2.39,1.77-3.57.6-1.18,1.27-2.33,1.84-3.53.39-.82.71-1.67-.04-2.53-.32-.37-.49-.88-.75-1.32-.42-.71-1.32-.85-1.9-.29-.22.21-.48.41-.63.67-.47.83-1.14,1.49-1.8,2.15-.31.3-.61.6-.92.9-1.98,1.96-3.95,3.91-5.73,6.06-1,1.2-2.29,2.12-3.4,3.21-.25.25-.56.45-.86.66-.26.18-.56.33-.93.29-.32-.03-.49-.1-.51-.47-.05-.87.12-1.69.49-2.45.24-.51.54-1.04.63-1.56.14-.81.57-1.43.95-2.09.86-1.49,1.66-3.01,2.32-4.58.21-.5.54-1.12.12-1.72-.68-.97-1.46-1.84-2.59-2.31-.15-.06-.29-.29-.49-.14-.21.16-.52.19-.63.49-.05.14-.12.27-.19.4-.36.75-.57,1.57-.98,2.28-.87,1.49-1.58,3.04-2.19,4.64-.48,1.26-.93,2.51-.92,3.89,0,.43.04.86,0,1.29-.05.65.14,1.19.59,1.65.3.31.6.62.91.91.88.82,1.89,1.26,3.11,1.18.29-.02.53-.07.77-.25.43-.34.86-.64,1.25-1.05,1.14-1.19,2.24-2.4,3.29-3.66.28-.33.36-.75.67-1.06.6-.6,1.21-1.19,1.73-1.88.68-.92,1.42-1.8,2.14-2.68.29-.36.58-.72,1-.94.11-.06.24-.08.34.03.09.1.08.23.02.34-.07.13-.16.27-.27.36-.49.43-.78.99-1,1.58-.33.87-.76,1.67-1.19,2.49-.08.16-.17.32-.22.49-.41,1.49-.59,3.01-.57,4.56.02,1.84.9,3.2,2.23,4.34.76.65,1.66,1.09,2.69.99,1.17-.11,2.31-.34,3.16-1.28.16-.18.35-.35.55-.49.6-.42,1.06-.98,1.56-1.51.4-.43.5-1.02.95-1.4.99-.84,1.62-1.94,2.17-3.09.24-.49.48-1.04,1.23-1.26-.2.66-.21,1.24-.37,1.74-.36,1.06-.43,2.13-.44,3.22-.02,1.21.33,1.64,1.5,1.97.89.25,1.8-.14,2.05-1.02.27-.94.62-1.85.99-2.75.51-1.26.9-2.56,1.63-3.73.67-1.07,1.26-2.19,2.18-3.06.58-.55.98-1.21,1.38-1.88.11-.18.18-.38.31-.54,1.06-1.29,2.03-2.64,3.2-3.83.19-.19.36-.21.55-.17.21.05.18.29.2.46.08.8-.09,1.59-.28,2.33-.3,1.21-.39,2.46-.84,3.64-.3.77-.46,1.59-.68,2.39-.49,1.74-1.19,3.4-1.66,5.15-.21.77-.15,1.4.51,1.97.52.45,1.11.53,1.72.66.77.16.98.33,1.4-.73.56-1.4,1.3-2.72,2.02-4.05.59-1.08,1.36-2.04,2.01-3.08.18-.29.21-.61.39-.89.96-1.56,2.08-3.01,3.25-4.4.71-.84,1.54-1.59,2.33-2.36.17-.17.33-.34.57-.44.58-.24.9-.11.92.52.03.85-.03,1.69-.19,2.53-.11.56-.38,1.06-.47,1.62-.1.62-.4,1.23-.65,1.83-.36.88-.68,1.76-.97,2.66-.21.65-.29,1.33-.41,2.01-.26,1.44-.24,2.77,1.04,3.78.07.06.14.12.19.19.42.6,1.15.63,1.74.89.36.16.85.05,1.27.05.71,0,1.32-.25,1.9-.68,1.14-.85,2.09-1.89,3.04-2.92.49-.52,1-1.04,1.38-1.67.14-.23.22-.48.36-.71.12-.19.26-.35.52-.28.27.07.17.29.18.45.01.61,0,1.23.02,1.84.03.69.21,1.34.51,1.98.45.94,1.2,1.55,1.98,2.19.58.48,1.19.62,1.88.53.92-.11,1.82-.18,2.72-.49.68-.23,1.3-.41,1.64-1.1.02-.04.1-.06.15-.08,1.1-.42,1.66-1.42,2.38-2.24.71-.81,1.07-1.85,1.82-2.65.37-.39.74-.54,1.2-.39,1.27.42,2.43,0,3.56-.48,1.37-.58,2.54-1.48,3.55-2.58.98-1.06,1.95-2.77,2.23-4.2.04-.2.1-.46-.2-.52Zm-12.26.87c-.71.27-.83.95-.95,1.52-.21.98-.26,1.99-.03,2.99.1.44.25.87.6,1.18.53.47.59,1.02.29,1.6-.52,1.03-.93,2.12-1.7,3.01-.52.6-1.17,1.02-1.88,1.34-.87.4-1.81.58-2.76.7-.75.09-.78-.02-1.04-.68-.21-.53-.19-1.06-.23-1.6,0,0,0,0,0,0h0s0,0,0,0c-.04-1.43.37-2.77.88-4.09.61-1.58,1.42-3.07,2.36-4.46.71-1.06,1.04-2.19,1.25-3.39.15-.84.89-1.31,1.66-.93.87.43,1.45,1.16,1.82,2.04.12.29.08.66-.26.79Z"/>
</svg>