<?xml version="1.0" encoding="UTF-8"?>
<svg id="Lag_1" data-name="Lag 1" xmlns="http://www.w3.org/2000/svg" viewBox="0 0 430.7 212.24">
  <defs>
    <style>
      .cls-1 {
        fill: #fff;
      }

      .cls-2 {
        fill: #191919;
      }
    </style>
  </defs>
  <path class="cls-1" d="m197.57,158.96c-3.02.9-4.02,3.11-4.98,5.1-2.26,4.68-4.82,9.12-8.82,12.54-1.82,1.56-2.22,3.95-3.86,5.68-2.03,2.14-3.88,4.41-6.31,6.13-.81.57-1.56,1.26-2.22,1.99-3.44,3.82-8.08,4.75-12.83,5.21-4.21.41-7.84-1.36-10.93-4.01-5.38-4.61-8.96-10.13-9.05-17.61-.07-6.31.65-12.45,2.32-18.5.19-.69.56-1.33.89-1.97,1.73-3.3,3.49-6.57,4.82-10.08.9-2.38,2.1-4.64,4.07-6.39.45-.4.79-.95,1.09-1.48.25-.43.31-.96-.07-1.38-.39-.43-.92-.35-1.37-.11-1.69.91-2.87,2.38-4.05,3.82-2.95,3.58-5.93,7.15-8.69,10.87-2.08,2.81-4.56,5.2-7,7.64-1.24,1.25-1.58,2.95-2.7,4.28-4.28,5.11-8.72,10.05-13.35,14.86-1.58,1.64-3.33,2.88-5.07,4.24-.94.73-1.95.94-3.11,1.02-4.96.34-9.08-1.47-12.63-4.78-1.28-1.19-2.48-2.46-3.71-3.7-1.84-1.86-2.6-4.06-2.39-6.69.14-1.73-.01-3.48-.03-5.22-.05-5.56,1.78-10.66,3.73-15.76,2.48-6.51,5.38-12.78,8.89-18.83,1.66-2.85,2.52-6.2,3.99-9.23.26-.54.55-1.08.76-1.64.44-1.19,1.67-1.35,2.54-1.98.81-.58,1.36.33,1.98.58,4.57,1.9,7.75,5.41,10.51,9.36,1.7,2.43.36,4.94-.5,6.97-2.69,6.4-5.95,12.56-9.43,18.59-1.54,2.67-3.27,5.2-3.84,8.47-.36,2.1-1.58,4.25-2.57,6.32-1.48,3.09-2.19,6.44-1.97,9.95.09,1.52.76,1.78,2.07,1.92,1.49.16,2.71-.44,3.76-1.17,1.19-.84,2.46-1.67,3.48-2.67,4.52-4.43,9.74-8.15,13.79-13.03,7.21-8.71,15.21-16.64,23.23-24.58,1.24-1.23,2.49-2.45,3.73-3.67,2.71-2.68,5.4-5.36,7.32-8.73.6-1.05,1.66-1.85,2.56-2.71,2.35-2.26,6.01-1.71,7.71,1.17,1.04,1.77,1.73,3.82,3.04,5.34,3.03,3.49,1.74,6.95.15,10.28-2.33,4.86-5.04,9.53-7.48,14.33-2.45,4.8-4.72,9.69-7.16,14.5-1.69,3.33-2.98,6.82-4.11,10.34-1.28,3.96-.94,8.11-.6,12.19.19,2.35.98,2.78,3.43,3.03,4.18.44,7.59-1.53,10.71-3.76,2.48-1.78,4.67-4.06,7.09-5.92,5.84-4.5,9.54-10.69,13.95-16.33,5.07-6.48,8.91-13.75,13.08-20.79,2.69-4.54,3.73-9.83,5.31-14.85.6-1.9,1-3.71-.34-5.79-1.36-2.1.12-3.96,2.74-4.27,2.63-.3,4.93.06,6.55,2.46.48.71,1.11,1.44,1.85,1.82,4.01,2.05,5.33,5.56,5.47,9.73.09,2.86.1,5.73.13,8.59,0,.51.04,1.11.56,1.23.83.18.85-.5,1.04-1.13.3-1.04.85-1.97,1.47-2.89,1.32-1.97,3.29-3.58,3.43-6.27.03-.55.47-1.38,1.45-1.85,1.38-.66,2.59-1.92,3.07-3.52.33-1.1.8-1.76,2.06-1.49.99.22,1.18-.53,1.48-1.21,2.87-6.37,8.55-8.91,14.74-10.69.91-.26,1.91-.21,2.69.77.68.85,1.55,1.66,2.5,2.15,1.32.67,1.76,1.54,1.54,2.95-.24,1.57-.08,2.78,1.93,3.3,1.46.38,2.21,2,2.54,3.4.56,2.36,1.39,4.59,2.54,6.71.62,1.16.96,2.18-.42,3.12-.92.62-.79,1.76-.82,2.7-.06,2.11-.46,4.16-1.45,5.96-1.06,1.92-.24,4.07-1.26,6.06-.51.99-.29,2.43-1.37,3.39-.27.24-.36.94.53,1.34,1.82-1.78,3.18-4.11,4.36-6.41,1.56-3.05,3.03-6.05,5.59-8.46,1.3-1.22,1.83-3.07,3-4.51,5.03-6.16,10.63-11.73,16.86-16.65,3.97-3.14,9.42-3.03,13.52.47,5.85,4.99,9.28,11.22,8.94,19.21-.08,1.92-1.08,3.47-1.34,5.3-.51,3.58-1.61,6.98-3.65,10.08-1.18,1.79-1,4.16-2.26,6.05-1.12,1.67-1.59,3.78-2.48,5.51-1.3,2.5-1.43,5.16-1.89,7.7-.39,2.13-1.21,3.9-2.17,5.7-.78,1.46-.32,3.1,1.27,3.51,1.32.34,2.73.42,4.08,0,2.91-.9,5.72-1.98,7.99-4.15,4.98-4.78,9.58-9.84,13.62-15.49,2.25-3.15,4.35-6.44,6.86-9.43,2.65-3.15,4.42-6.95,5.48-10.88.98-3.65,2.91-6.72,5.26-9.36,3.68-4.13,6.98-8.56,10.56-12.74,2.96-3.45,6.78-6.54,11.75-5.56,5.07,1,10.42,1.87,14.48,5.45,2.92,2.57,5.16,5.76,6.01,9.72.23,1.05.67,2.06,1.05,3.08.68,1.83,1.38,3.64,1.19,5.65-.04.37-.13.82.03,1.11,2.16,4.08,1.12,8.49,1.38,12.76.04.74.05,1.5,0,2.24-.09,1.3.54,1.66,1.76,1.75,6.15.47,11.73-1.09,16.99-4.26,8.48-5.11,13.97-12.69,17.92-21.49.6-1.34,1.27-1.36,2.2-1.19,1.23.22.99,1.3.83,2.1-1.17,5.79-5.08,12.75-9.06,17.04-4.13,4.46-8.85,8.11-14.42,10.45-4.56,1.92-9.27,3.63-14.43,1.94-1.84-.6-3.35-.02-4.85,1.58-3.02,3.25-4.49,7.48-7.37,10.76-2.92,3.33-5.17,7.4-9.65,9.1-.22.08-.54.16-.62.33-1.38,2.77-3.89,3.5-6.66,4.45-3.65,1.25-7.33,1.54-11.05,1.97-2.81.33-5.29-.24-7.63-2.17-3.15-2.59-6.2-5.07-8.03-8.88-1.24-2.58-1.96-5.21-2.08-8.02-.11-2.49-.03-4.98-.09-7.47-.01-.66.38-1.56-.71-1.83-1.05-.26-1.63.37-2.1,1.15-.55.92-.88,1.94-1.45,2.88-1.54,2.54-3.62,4.65-5.59,6.76-3.88,4.15-7.72,8.39-12.34,11.83-2.37,1.76-4.83,2.74-7.72,2.76-1.74.01-3.69.44-5.17-.2-2.4-1.04-5.35-1.18-7.07-3.6-.21-.3-.5-.56-.79-.79-5.17-4.08-5.25-9.48-4.21-15.32.49-2.73.81-5.5,1.66-8.14,1.17-3.64,2.48-7.22,3.92-10.78.98-2.43,2.2-4.89,2.62-7.42.38-2.31,1.46-4.32,1.91-6.59.68-3.44.92-6.84.79-10.28-.1-2.53-1.38-3.05-3.74-2.09-1,.41-1.64,1.1-2.32,1.78-3.19,3.16-6.56,6.17-9.44,9.59-4.77,5.66-9.29,11.54-13.2,17.86-.71,1.15-.85,2.45-1.58,3.63-2.63,4.22-5.76,8.1-8.16,12.48-2.95,5.37-5.94,10.72-8.21,16.41-1.71,4.29-2.53,3.63-5.67,2.97-2.5-.53-4.9-.86-6.99-2.69-2.66-2.32-2.9-4.9-2.06-8.01,1.9-7.07,4.73-13.83,6.72-20.87.92-3.23,1.57-6.57,2.77-9.69,1.83-4.78,2.2-9.87,3.4-14.77.74-3.02,1.44-6.23,1.12-9.46-.07-.72.05-1.66-.82-1.88-.76-.19-1.46-.11-2.24.68-4.75,4.83-8.72,10.3-13,15.52-.52.64-.82,1.46-1.25,2.18-1.62,2.72-3.23,5.39-5.6,7.62-3.75,3.53-6.15,8.08-8.85,12.41-2.95,4.74-4.53,10.02-6.6,15.12-1.5,3.68-2.92,7.34-4.01,11.17-1.01,3.54-4.73,5.14-8.32,4.12-4.73-1.34-6.15-3.08-6.08-7.99.06-4.41.33-8.76,1.79-13.06.69-2.04.69-4.42,1.53-7.11Z"/>
  <path class="cls-1" d="m135.31,91.36c-1.49.56-2.31,1.22-3.49,1.38-2.24.29-4.34.85-6.47,2.03-2.22,1.23-4.93,1.87-7.66,2.29-5.6.86-11.24,1.19-16.85,1.87-4.61.56-9.11,1.82-13.78,2.01-1.43.06-3.07.21-4.23.94-2.18,1.38-4.76.97-6.93,2.01-2.7,1.29-5.89,1.23-8.36,3.01-1.42,1.02-3.14.74-4.7,1.73-3.52,2.23-5.58,5.53-7.24,8.95-2.61,5.37-4.84,10.97-6.26,16.81-.63,2.57-1.77,4.97-2.13,7.65-.4,2.97-2,5.64-3.11,8.38-2.72,6.74-4.15,13.78-6.01,20.74-1.06,3.96-1.33,8.05-2.64,11.98-1.24,3.72-2.55,7.48-3.28,11.4-.34,1.84-1.59,3.47-2.32,5.25-1.03,2.51-1.39,5.15-1.87,7.69-.37,1.96-1.19,3.34-2.32,4.74-1.27-.3-.89-1.34-.88-2.12.09-8.69.8-17.35,1.47-26.01.38-4.89,1.37-9.69,1.69-14.6.19-2.94,1.42-5.84,1.71-8.85.39-4.11,2.32-7.84,2.71-11.96.21-2.23,1.34-4.32,1.79-6.59,1.34-6.83,4.37-13.2,5.88-20,.15-.69.46-1.36.56-2.1.1-.72.54-1.53-.31-1.98-.65-.34-1.52-.36-2.15.05-4.42,2.94-9.57,4.66-13.66,8.14-1.17,1-2.63,1.22-4.01,1.52-1.05.23-2.16.16-3.01-.95-.82-1.08-2.01-1.88-2.88-2.92-2.28-2.74-2.77-5.94.44-8.37,1.72-1.3,3.75-2.18,5.49-3.46,2.76-2.05,6.06-2.91,9.14-4.19,4.65-1.94,9.22-4.23,14.36-4.72.86-.08,1.35-.62,1.73-1.25,2.53-4.06,4.76-8.27,6.99-12.5,3.14-5.94,6-12.03,9.44-17.8,1.8-3,3.33-6.15,5.09-9.17,3.47-5.95,7.34-11.62,11.05-17.41,2.35-3.67,4.26-7.61,7.05-10.99-1.49-1.06-3.14-.74-4.62-.37-3.49.88-7.1,1.29-10.49,2.67-1.2.49-2.67.25-3.99.51-5.2.99-10.36,2.53-15.15,4.49-5.5,2.25-11.4,3.75-16.46,7.14-1.73,1.15-4.02,1.34-5.84,2.55-6.31,4.23-11.44,9.22-13.05,17.12-.69,3.39-3.04,6.07-5.76,8.28-1.09.88-2.31.95-3.35-.06-1.88-1.82-3.73-3.67-5.51-5.59-2.08-2.24-.81-4.83.01-6.87,1.42-3.53,2.79-7.1,5.24-10.26,1.94-2.51,4.38-4.33,6.69-6.21,5.15-4.17,10.97-7.39,16.85-10.51,4.36-2.31,9.17-3.6,13.36-6.21,3.45-.1,6.36-2.01,9.49-3.06,3.75-1.26,7.81-1.59,11.3-3.6.11-.06.24-.17.34-.15,4.35,1.06,8.05-1.37,11.99-2.36,3.52-.88,7-1.77,10.61-2.25,1.11-.15,2.22-1.03,3.17-1.62,2.55-1.57,5.2-1.93,8.01-1.84,1.78.06,3.38-.34,4.94-1.13.97-.49,2.03-1.41,2.95-1.31,4.89.57,8.91-2.08,13.31-3.3.24-.07.48-.25.7-.22,4.16.65,8.02-.88,11.96-1.68,2.49-.51,5.02-1.06,7.5-1.33,3.29-.36,6.32-1.76,9.73-1.7,3.38.05,6.77-.92,10.17-1.26,3.79-.37,7.61-.22,11.4-.88,2.14-.38,4.36-.05,6.53-.81,2.09-.73,4.36-.64,6.59-.7,3.84-.1,7.68-.5,11.53-.64,3.08-.12,6.18-.31,9.1,1.21,1.07.56,2.38.49,3.47-.54.32-.31,1.21-.48,1.64.21.43.69.14,1.47,0,2.16-.1.49-.73.49-1.25.53-1.28.09-2.35-.55-3.39-.97-.77.61-.5,1.45-.69,2.38-1.93-.65-3.67-.97-5.6-.24-1.32.5-3.18.68-4.4.13-2.37-1.08-4.32.04-6.29.63-3.46,1.04-7.07,1.73-10.41,2.86-3.61,1.21-7.08.92-10.61,1.28-1.15.12-2.25.49-3.08,1.09-1.68,1.22-3.3,1.52-5.38,1.28-3.2-.37-6.38.63-9.3,1.74-1.39.52-2.69.88-4.12,1.12-4.28.73-8.21,2.98-12.67,2.93-2.4,2.06-5.9.75-8.39,2.73-.68.54-1.84.77-2.7.88-3.48.44-6.71,1.83-10.05,2.7-2.28.59-4.68,1.06-6.96,1.86-2.48.87-5.01,1.79-7.6,2.15-1.76.24-1.57,1.1-1.59,2.22-.04,1.83,1.06,3.3,1.96,4.61,1.91,2.79,1.61,5-.13,7.81-2.01,3.24-3.98,6.56-5.72,9.97-1.05,2.06-2.54,3.82-3.78,5.71-4.38,6.65-7.55,13.97-11.8,20.66-2.72,4.28-4.52,8.98-6.64,13.53-.19.41-1.06.79-.3,1.49.62.58,1.05.51,1.89.23,2.18-.7,4.23-2.02,6.68-1.72.81.1,1.85-.3,2.08.97.24,1.34-.88,1.19-1.64,1.47-.17.06-.25.36-.38.57.28.8.98.58,1.53.56,4.88-.17,9.63-1.11,14.36-2.28,3.39-.84,6.83-1.44,10.25-2.17,1.95-.41,3.88-.87,5.77-1.29.04-.97-.49-1.07-.96-.99-3.37.52-6.84-.33-10.17,1.46-1.56.84-3.91.23-5.91.2-.27,0-.69-.36-.76-.63-.16-.56.19-.84.78-.97,1.42-.31,2.76-.96,4.29-.82,2.37.22,4.56-.96,6.92-1,2.07-.04,4.18-.76,6.18.42.6.36,1.22.14,1.77-.14.69-.34,1.38-.51,2.15-.49,1.8.05,3.16,1.38,4.67,1.76,1.21.3,2.92-.88,4.55-.58.51.09.8.35,1.05.86.4.86,1.37.7,1.98.48,1.26-.45.04-1.14.02-1.74-.03-.95.24-1.57,1.49-1.56,3.1.03,5.65,1.04,7.94,3.74Z"/>
  <path class="cls-1" d="m225.04,1.8c-.13-.87.33-1.33.69-1.41,2.31-.51,4.7-.47,6.99-.16,5.81.78,7.22,1.35,9.81,3.27-1.18,0-2.05-.04-2.92,0-1,.05-1.87-.32-2.8-.61-2.21-.71-4.5-1.03-6.86-.81-1.67.16-3.37.18-4.92-.28Z"/>
  <path class="cls-1" d="m216.29,4.42c-1.12-.96-1.65-2.11-2.94-2.54C215.76.3,218.27,0,220.87.1c.6.02,1.31-.06,1.45.75.16.96-.37,1.65-1.16,2.07-.29.15-.85.19-1.07.01-1.89-1.51-2.72.06-3.8,1.48Z"/>
  <path class="cls-1" d="m83.54,94.73c-.31-.04-.84,0-1.26-.2-.26-.11-.45-.55-.53-.87-.09-.35.05-.82.44-.88,2.14-.33,4.29-.62,6.44-.88.18-.02.55.26.56.4,0,.34-.05.86-.27,1-1.58.99-3.36,1.31-5.37,1.42Z"/>
  <path class="cls-2" d="m348.72,173.65c-.15-5.82,1.5-11.23,3.57-16.58,2.49-6.41,5.76-12.45,9.59-18.08,2.9-4.28,4.22-8.88,5.07-13.76.6-3.41,3.63-5.33,6.72-3.79,3.51,1.75,5.9,4.7,7.4,8.28.5,1.19.31,2.67-1.07,3.19-2.9,1.1-3.37,3.84-3.87,6.15-.87,3.96-1.07,8.07-.13,12.11.41,1.77,1.02,3.54,2.42,4.78,2.15,1.9,2.38,4.13,1.19,6.49-2.1,4.17-3.79,8.6-6.9,12.19-2.1,2.42-4.76,4.14-7.64,5.45-3.54,1.61-7.36,2.37-11.19,2.83-3.04.36-3.16-.07-4.23-2.76-.86-2.17-.79-4.32-.93-6.51Z"/>
</svg>